<svg xmlns="http://www.w3.org/2000/svg" viewBox="0 0 1200 630"><defs><style>.cls-1{fill:#88a5c9;}.cls-2{fill:#5a5a8b;}.cls-3{fill:#564473;}.cls-4{fill:#766d94;}.cls-5{fill:#141432;}.cls-6{fill:#585779;}.cls-7{fill:#3c3a65;}.cls-8{fill:#2a2d67;}.cls-9{fill:#241f46;}.cls-10{fill:#3c2e5c;}.cls-11{fill:#626098;}.cls-12{fill:#2f286e;}.cls-13{fill:#1b224d;}.cls-14{fill:#242434;}.cls-15{fill:#1d2037;}.cls-16{fill:#1b1b22;}.cls-17{fill:#8dcec6;}.cls-18{fill:#040000;}.cls-19{fill:#fff;}</style></defs><g id="圖層_11" data-name="圖層 11"><rect class="cls-1" width="1200" height="630"/><polygon class="cls-2" points="600.98 364.85 659.64 382.7 684.98 411.42 670.9 453.65 599.43 521.77 532.18 494.6 627.6 439.57 600.98 364.85"/><polygon class="cls-3" points="783.04 390.61 762.75 378.24 748.89 384.43 727.61 384.43 701.88 390.61 680.6 384.43 666.24 368.72 652.62 363.89 627.64 359.43 595.47 345.08 575.18 342.11 570.23 350.52 626.15 378.24 659.32 393.58 676.64 419.81 672.18 442.58 724.78 422.15 783.04 390.61"/><polygon class="cls-4" points="642.07 407.5 626.53 388.08 583.59 349.04 532.18 330.8 520.1 347.57 477.56 357.45 473.44 370.51 453.4 392.35 402.8 429.02 364.5 457.38 69.97 630 217.37 630 553.39 492.55 588.34 473.63 616.17 458 627.6 439.57 655.92 437.28 654.4 423.28 642.07 407.5"/><polyline class="cls-5" points="916.97 387.8 896.03 380.65 879.17 379.02 863.8 376.4 856.52 384.71 893.84 429.42 888.21 476.94 880.08 501.01 852.89 531.34 833.5 549.78 814.75 568.54 814.75 578.55 893.91 594.67 957.73 557.52 946.36 501.25 925.05 462.46 949.64 411.64 957.73 376.4 952.56 368.72"/><polygon class="cls-6" points="869.33 377.78 879.17 379.02 888.15 375.61 904.25 377.31 918.5 379.02 927.79 379.02 935.22 373.13 952.56 368.72 938.63 381.8 928.41 396.98 920.05 406.89 903.02 390.79 869.33 377.78"/><polygon class="cls-7" points="839.32 373.39 826.93 370.51 813.52 373.39 801.69 368.72 782.76 384.89 752.39 393.17 723.99 410.13 677.45 428.28 667.59 434.19 644.71 465.35 633.27 487.54 617.1 497.69 596.59 516.17 593.04 532.8 679.02 578.55 758.7 516.17 856.52 387.65 839.32 373.39"/><polygon class="cls-8" points="852.76 370.51 839.32 373.39 825.88 385.87 813.4 394.03 801.4 394.03 789.89 407.47 778.85 415.63 762.53 419.47 755.81 437.22 765.41 443.94 730.37 462.18 744.77 480.9 730.37 500.58 713.1 507.77 715.5 516.17 697.26 516.17 676.62 525.05 652.62 571.13 794.48 608.46 849.4 608.46 822.52 569.69 833.08 562.97 852.76 560.57 852.76 544.73 856.12 539.93 866.68 536.04 889.97 514.64 896.2 490.81 908.34 473.63 913.48 454.9 921.88 433.1 919.12 414.32 906.03 398.9 852.76 370.51"/><polygon class="cls-9" points="1200 387.8 1164.76 371.38 1153.89 371.38 1123.46 336.06 1099.34 326.13 1093.57 339.86 1093.57 385.51 1070.2 420.29 1027.81 468.11 1019.5 497.37 1095.74 530.07 1200 543.77 1200 387.8"/><polygon class="cls-10" points="1086.65 310.68 1054.08 320.06 1040.83 320.06 1023.16 322.82 990.6 343.25 944.2 371.58 936.77 392.33 923.45 411.84 928.98 433.76 921.91 455.81 920.76 477.51 911.69 498.86 922.22 518.99 948.49 547.37 1030.8 505.28 1034.76 479.59 1050.77 453.1 1102.65 417.77 1093.82 410.59 1110.38 382.44 1119.77 361.46 1101 360.91 1109.83 333.31 1099.34 326.13 1086.65 310.68"/><polygon class="cls-11" points="334.1 630 445.91 558.54 456.75 505.34 119.78 630 334.1 630"/><polygon class="cls-12" points="430.68 507.88 406.16 541.88 365.58 568.21 282.87 630 339.85 630 532.18 494.6 483.4 494.6 430.68 507.88"/><path class="cls-13" d="M1114.92,603.22l-147.13-23S855,581.82,802.41,572.56,678.92,537,678.92,537l-63-28.07L532.18,494.6l-48.65,11.33-53,29-26.2,27.12-38,32.13-42.47,29.33V630h802.66Z"/><polygon class="cls-14" points="1129.85 498.38 1136.06 458.19 1086.83 475.79 1050.79 491.73 1014.5 516.49 994.16 548.61 1023.82 540.76 1034.36 548.61 1000.04 566.01 989.99 599.85 1036.33 576.31 1054.47 580.23 1060.34 593.15 1054.61 619.23 1057.9 630 1138.28 630 1133.85 621.63 1097.83 541.6 1099.43 513.59 1129.85 498.38"/><polygon class="cls-15" points="1200 439.52 1198.75 438.9 1162.37 454.38 1153.08 454.38 1136.06 458.19 1116.7 462.12 1102.77 465.22 1086.9 473.35 1092.32 475.67 1117.87 471.28 1129.09 471.28 1126.77 484.57 1117.09 499.66 1094.26 503.53 1072.97 512.05 1078.39 522.88 1070.65 536.82 1070.65 552.3 1101.04 597.77 1110.95 630 1200 630 1200 439.52"/><polygon class="cls-16" points="1038.19 503.23 1063.06 491.08 1092.32 475.67 1086.9 473.35 1067.58 477.8 1051.76 483.17 979.24 523.65 843.47 588.58 721.64 630 1061.08 630 1054.61 619.23 1067.3 590.25 1054.02 567.65 1034.52 568.22 996.09 591.67 1005.13 566.38 1041.58 552.11 1024.63 536.01 998.35 545.05 1017.57 519.34 1038.19 503.23"/><circle class="cls-17" cx="882.2" cy="554.22" r="11.09"/><path class="cls-17" d="M880.79,554.22c0-.4,0-40.66,12.91-81,8-25.1,27.23-63.57,28.25-65.61.93-2.62,20.47-56,69.86-82.7,45.82-24.73,94.62-15.69,95.1-15.6l-.53,2.77c-.48-.09-48.31-8.92-93.23,15.32-49.39,26.66-68.37,80.68-68.56,81.22l-.07.18c-.2.39-20,39.83-28.13,65.28-12.76,39.92-12.78,79.76-12.78,80.15Z"/><circle class="cls-17" cx="923.26" cy="408.14" r="5.85"/><circle class="cls-17" cx="1084.66" cy="310.68" r="5.85"/><circle class="cls-17" cx="1190.47" cy="442.58" r="5.85"/><circle class="cls-17" cx="684.98" cy="423.28" r="5.85"/><circle class="cls-17" cx="532.18" cy="332.77" r="5.85"/><circle class="cls-17" cx="656.93" cy="521.77" r="5.85"/><circle class="cls-17" cx="532.18" cy="493.39" r="5.85"/><path class="cls-17" d="M881.61,555.5c-.66-.3-66.16-30.23-113.5-35.17-61-6.36-111.87,2.74-112.37,2.83l-.43.08-.4-.17c-.31-.14-31.52-14-53.31-18.9C570.08,497,532.52,496,532.14,496l.08-2.82c.37,0,38.21,1,70,8.23,20.72,4.69,49.72,17.26,53.44,18.89,5.1-.87,54.29-8.89,112.75-2.79,47.8,5,113.72,35.11,114.38,35.42Z"/><path class="cls-17" d="M880.92,554.82c-.34-.73-34.46-72.55-101.26-109.09-40.18-22-94.12-21.06-94.65-21l-.83,0-.42-.72c-.21-.35-21.24-35.79-64.64-60.82-37.14-21.43-80.89-28.94-81.33-29l.47-2.78c.44.07,44.68,7.66,82.27,29.34,40.66,23.46,62,55.95,65.23,61.14h.4c8.3,0,57.39.91,94.85,21.4,67.64,37,102.13,109.63,102.47,110.36Z"/><path class="cls-17" d="M883.25,555.15l-2.11-1.87c.68-.77,69.34-77.63,159.34-102.52,49.29-13.63,143.26-9.63,144.2-9.59l-.12,2.82c-.94,0-94.47-4-143.33,9.5C952.06,478.15,883.93,554.39,883.25,555.15Z"/><polygon class="cls-18" points="1098.88 432.3 1098.88 426.3 1096.44 422.73 1090.63 427.52 1090.63 430.99 1094.75 435.87 1090.63 445.62 1088.19 455.75 1093.53 458.38 1093.53 463.82 1097.19 474.33 1098.88 482.21 1095.13 487.46 1093.53 489.71 1099.82 493.65 1105.07 491.03 1103.01 475.08 1102.63 462.88 1106.01 464.57 1109.2 461.94 1113.89 450.31 1113.89 438.87 1111.08 429.11 1103.95 428.74 1098.88 432.3"/><polygon class="cls-18" points="1067.04 436.2 1073.11 437.93 1073.11 446.16 1070.94 449.36 1075.06 450.71 1079.17 458.94 1079.17 466.31 1071.59 475.84 1069.21 492.95 1067.04 504.21 1064.66 512.01 1057.73 513.31 1057.73 496.63 1057.73 473.45 1056.64 462.19 1056.64 456.56 1049.5 449.36 1047.98 439.66 1055.99 436.2 1062.06 433.38 1062.49 437.06 1054.7 441.61 1055.56 446.16 1059.03 447.24 1063.58 448.54 1061.84 444.43 1067.04 436.2"/><polygon class="cls-18" points="1030.12 497.4 1020.19 497.4 1017.09 509.81 1021.96 515.01 1012.12 524.09 999.72 528.91 1000.77 529.84 1006.78 528.93 1014.41 527.77 1023.89 521.07 1027.02 534.02 1027.02 545.81 1024.74 564.82 1030.85 565.03 1033.85 542.09 1035.03 559.83 1034.62 565.09 1042.05 565.15 1041.93 552.49 1040.21 535.89 1042.74 532.13 1042.74 527.9 1045.08 526.34 1049.76 519.71 1048.4 507.63 1044.3 500.42 1038.46 498.47 1031.83 500.42 1030.12 497.4"/><polygon class="cls-18" points="1020.94 565.15 1006.78 528.93 1004.87 529.22 1019.7 565.81 1020.94 565.15"/><path class="cls-19" d="M219.22,201.8a7.53,7.53,0,0,1,2.46,5.81,9.35,9.35,0,0,1-2.69,6.47,38.21,38.21,0,0,1-5.7,4.43c-3.51,2.35-5.51,4.47-6,6.32h14.44v2.81H203.39a9.89,9.89,0,0,1,2.73-6.82,33.79,33.79,0,0,1,6-4.89,34.59,34.59,0,0,0,4.32-3.43,7.2,7.2,0,0,0,2.11-4.93,5,5,0,0,0-1.5-3.89,6,6,0,0,0-4.2-1.38,5.13,5.13,0,0,0-4.35,1.92,8.35,8.35,0,0,0-1.69,5.51h-3.16a10.36,10.36,0,0,1,2.58-7.36,8.73,8.73,0,0,1,6.74-2.77A9.1,9.1,0,0,1,219.22,201.8Z"/><path class="cls-19" d="M243.48,204q2.21,3.7,2.2,9.94t-2.2,9.94a8.53,8.53,0,0,1-14.87,0q-2.19-3.71-2.19-9.94t2.19-9.94a8.53,8.53,0,0,1,14.87,0Zm-12.75,2.31a20.41,20.41,0,0,0-1.15,7.63,20.66,20.66,0,0,0,1.15,7.63c1.08,2.62,2.85,4,5.32,4s4.24-1.34,5.31-4a20.54,20.54,0,0,0,1.2-7.63,20.29,20.29,0,0,0-1.2-7.63c-1.07-2.65-2.85-4-5.31-4S231.81,203.61,230.73,206.26Z"/><path class="cls-19" d="M266.21,201.8a7.5,7.5,0,0,1,2.46,5.81,9.35,9.35,0,0,1-2.69,6.47,38.21,38.21,0,0,1-5.7,4.43c-3.51,2.35-5.51,4.47-6,6.32h14.44v2.81H250.38a9.89,9.89,0,0,1,2.73-6.82,33.79,33.79,0,0,1,6-4.89,34.59,34.59,0,0,0,4.32-3.43,7.2,7.2,0,0,0,2.11-4.93,5,5,0,0,0-1.5-3.89,6,6,0,0,0-4.2-1.38,5.13,5.13,0,0,0-4.35,1.92,8.4,8.4,0,0,0-1.69,5.51h-3.16a10.36,10.36,0,0,1,2.58-7.36,8.73,8.73,0,0,1,6.74-2.77A9.1,9.1,0,0,1,266.21,201.8Z"/><path class="cls-19" d="M289.7,201.6a6.82,6.82,0,0,1,2.39,5.47,6,6,0,0,1-4.51,6.17,7.2,7.2,0,0,1,3.7,2.35,5.94,5.94,0,0,1,1.39,4,7.93,7.93,0,0,1-2.62,6.12,9.86,9.86,0,0,1-6.93,2.43,10,10,0,0,1-6.4-2,9.6,9.6,0,0,1-3.27-7.05h3.2a6.35,6.35,0,0,0,2.15,4.93,6.72,6.72,0,0,0,4.32,1.42,6.63,6.63,0,0,0,4.73-1.69,5.52,5.52,0,0,0,1.66-4,4.8,4.8,0,0,0-1.62-3.86,6.6,6.6,0,0,0-4.46-1.34h-2.24v-2.47h2.12a6.34,6.34,0,0,0,4.2-1.23,4.54,4.54,0,0,0,1.46-3.58,4.67,4.67,0,0,0-1.42-3.59,6,6,0,0,0-4.2-1.34A5.94,5.94,0,0,0,279,203.8a6.53,6.53,0,0,0-1.88,4.27H274a9.08,9.08,0,0,1,2.92-6.24,9,9,0,0,1,6.36-2.23A9.72,9.72,0,0,1,289.7,201.6Z"/><path class="cls-19" d="M305.61,196.56c2.39,3,4.66,6.24,6.86,9.63l-1.7,1.81a104.41,104.41,0,0,0-5.93-8.71,61,61,0,0,1-6.74,10l-1.58-2.2a57.62,57.62,0,0,0,6.9-10.55Zm5.63,16.75v2.28a51,51,0,0,1-5.05,9.24,44.87,44.87,0,0,1,3.81,3.93l-1.92,1.93a59.7,59.7,0,0,0-9.17-8.75l1.85-1.77c1.27,1,2.46,2,3.54,2.93a57,57,0,0,0,4.08-7.28H298v-2.51Zm-2.16-6.62v2.46h-8.75v-2.46Zm11.51,18.95a29.47,29.47,0,0,1-7.66,6l-1.62-2.2a29,29,0,0,0,7.44-5.43Zm10.6-27.89v2.54H323.1c-.16,1.16-.35,2.28-.58,3.35H330v20.27H313.62V203.64h6.13c.23-1.11.42-2.23.54-3.35h-8.13v-2.54Zm-3.85,11.87v-3.55H316.28v3.55Zm0,5.81v-3.5H316.28v3.5Zm0,2.31H316.28v3.66h11.06Zm4.73,11.83-1.88,1.89a42.89,42.89,0,0,0-6.71-5.82l1.7-1.62A47.21,47.21,0,0,1,332.07,229.57Z"/><path class="cls-19" d="M339.78,206.42V196.25h2.73v10.17h3.66v2.69h-3.66v11.64c1.23-.54,2.47-1.16,3.62-1.77v2.77a56.39,56.39,0,0,1-9.78,4l-.7-2.81c1.39-.35,2.78-.73,4.13-1.19V209.11H336v-2.69Zm18.1,17.18a90,90,0,0,1-12.25,3.7l-.65-2.66a68.65,68.65,0,0,0,12.9-3.55Zm2-22.19c0-1.69,0-3.43,0-5.2h2.69c0,1.81,0,3.54,0,5.2h3.93a37.31,37.31,0,0,0-1.69-4l2.5-.42c.5,1.27,1,2.73,1.5,4.39h1.89V204h-8.09c.11,5.93.38,10.79.81,14.52a49.42,49.42,0,0,0,3.54-11.28l2.39,1A49.22,49.22,0,0,1,364,222.75c.78,3.66,1.62,5.55,2.62,5.7.77-.08,1.51-2,2.28-5.82l2.08,1.7c-1.24,4.62-2.66,6.93-4.36,6.93-1.27,0-2.38-1-3.39-3a19.58,19.58,0,0,1-1.07-2.74,23.84,23.84,0,0,1-6.44,5.9l-1.69-2.2a22,22,0,0,0,7.32-7.05c-.23-1.08-.39-2.19-.54-3.43a140.41,140.41,0,0,1-.93-14.71H346.21v-2.62Zm-2.31,6.43v10.87h-9.78V207.84Zm-2.46,2.31h-4.89v6.28h4.89Z"/><path class="cls-19" d="M377.45,219.13c-.35,4.12-.77,7.74-1.27,10.82l-1.78-.65c.54-2.77,1-6.32,1.47-10.59Zm11.48-4.7c0,8.47-.35,13.44-1,14.83a3.61,3.61,0,0,1-3.62,2.12c-.61,0-1.27,0-1.89-.08l-.61-2.31c.77.08,1.46.15,2.08.15,1.35,0,2.12-.84,2.35-2.5a88.86,88.86,0,0,0,.34-9.9H375.75V197.6h12.37V200H384v3.39h4v2.23h-4v3.2h4V211h-4v3.43ZM378.18,200v3.39h3.47V200Zm0,8.82h3.47v-3.2h-3.47Zm0,5.66h3.47V211h-3.47Zm2.27,14.21-1.69.2c-.08-4.24-.16-7.52-.27-9.83l1.5-.19Q380.34,222.41,380.45,228.64Zm3-2.11-1.54.19a41,41,0,0,0-1-8.09l1.46-.16A51.68,51.68,0,0,1,383.49,226.53Zm2.82-2.12-1.43.57c-.35-2.27-.77-4.46-1.27-6.62L385,218C385.57,220.28,386,222.44,386.31,224.41Zm22.61-26.77v2.46H393.05v26.54c0,.85.46,1.31,1.38,1.31H409.3v2.47H393.7c-2.08,0-3.12-1.16-3.12-3.43V200.1h-1.35v-2.46Zm-8,15.67v11.91h-6V213.31Zm6.27-10.59v8.4H396v-8.4Zm-8,12.63h-2.39v7.82h2.39Zm5.59-10.43h-6.32v4h6.32Zm3.81,8.39v11.91h-6V213.31Zm-1.85,2h-2.39v7.82h2.39Z"/><path class="cls-19" d="M439.31,196.29v7.32h7.78c0,12.67-.2,20.49-.54,23.49-.35,2.66-1.93,4-4.78,4-.73,0-2,0-3.77-.12l-.66-2.46c1.54.07,2.93.15,4.09.15,1.46,0,2.31-.88,2.54-2.66.27-2.15.42-8.82.5-19.91h-5.16V208c-.08,10.63-2.43,18.45-7,23.38l-2-1.73c.12-.16.23-.27.35-.43-5,.62-10.71,1.12-17.07,1.54l-.34-2.46c2.85-.16,5.58-.35,8.16-.54v-3.43H414.5V222h6.93v-2.66h-6.89V207.57h6.89v-2.46h-7.85V202.8h7.85v-2.7c-2.15.16-4.46.23-6.89.23l-.77-2.23a70.91,70.91,0,0,0,16.29-1.58l1.23,2.12a52.47,52.47,0,0,1-7.24,1.27v2.89h7.67v2.31h-7.67v2.46H431v11.75h-6.94V222h7v2.31h-7v3.2c2.51-.23,4.86-.5,7-.81v2c3.7-4.62,5.59-11.52,5.67-20.76v-1.85h-3.82v-2.5h3.82v-7.32Zm-17.72,16.18v-2.85H417v2.85Zm0,1.92H417v2.85h4.55Zm2.31-1.92h4.58v-2.85H423.9Zm4.58,1.92H423.9v2.85h4.58Z"/><path class="cls-19" d="M459.1,201.26a28.83,28.83,0,0,0-2.34-4.47l2.65-.73a35.89,35.89,0,0,1,2.16,4.66l-1.5.54h6.78v2.54H452.48v-2.54ZM465.42,229h-9v1.89h-2.62v-13h11.63Zm-.27-22.15v2.43h-11v-2.43Zm0,5.32v2.42h-11V212.2Zm-2.27,14.33v-6.17h-6.47v6.17Zm21.8-13.87v2.54a22.08,22.08,0,0,1-5.28,9.13,34.61,34.61,0,0,0,8.52,4.89l-1.51,2.39a37.74,37.74,0,0,1-8.89-5.51,32.19,32.19,0,0,1-10.33,5.51l-1.5-2.35a31.46,31.46,0,0,0,9.79-5.09,20.89,20.89,0,0,1-5-8.82h-2.43v-2.69Zm-2.19-15V206c0,1,.5,1.47,1.57,1.47h2.74V210h-3.43c-2.46,0-3.66-1.16-3.66-3.43v-6.28h-6V202c0,3.85-1.81,6.81-5.35,8.89l-1.85-2c3-1.54,4.47-3.73,4.47-6.58v-4.63Zm-5.09,24.77a21.84,21.84,0,0,0,4.59-7.09h-8.83A17.76,17.76,0,0,0,477.4,222.44Z"/><path class="cls-19" d="M497.66,201.22a29.41,29.41,0,0,0-2.08-4.43l2.66-.73a34.94,34.94,0,0,1,2,4.66l-1.34.5h6.74v2.58H491v-2.58Zm-2.58,30.24h-2.66V217.9h11.75v13h-2.66v-1.78h-6.43Zm9-24.54v2.43H492.54v-2.43Zm0,5.28v2.46H492.54V212.2Zm-2.55,8.2h-6.43v6.2h6.43Zm16-24.15v12.63h8.82v2.7h-8.82v19.88H514.8V211.58h-8.55v-2.7h8.55V196.25Z"/><path class="cls-19" d="M532,210l-1.85-2.31a21.4,21.4,0,0,0,7.86-11.9l2.89.53a40.74,40.74,0,0,1-1.47,4.13h23.92v2.69H551.28v6.17H562V212H551.28v8.32h13.33V223H551.28v8.59h-2.81V223h-17.8v-2.7H537v-11h11.44v-6.17H538.11A23.24,23.24,0,0,1,532,210Zm16.45,10.28V212H539.8v8.32Z"/><path class="cls-19" d="M570.34,207.65l-1.46-2.31a95.14,95.14,0,0,0,16.83-9.05h1.7a95.3,95.3,0,0,0,16.83,9l-1.46,2.31c-3.12-1.46-6-2.89-8.59-4.31v1.62H578.9v-1.5Q575,205.51,570.34,207.65Zm29.74-.69v9.82H573V207Zm-1.39,24.61H596v-1.46H577.12v1.5h-2.65V218.86h24.22Zm-13.4-22.49h-9.71v5.62h9.71ZM596,223.44v-2.5H577.12v2.5Zm0,4.47v-2.5H577.12v2.5Zm-13.6-14.21-1.89.46a23,23,0,0,0-2-3.89l1.89-.62A20.11,20.11,0,0,1,582.44,213.7Zm4.12-15c-2,1.38-4.28,2.73-6.66,4.12h13.44C590.87,201.41,588.6,200.06,586.56,198.68Zm11,10.4h-9.71v5.62h9.71Zm-3,1.07a16.41,16.41,0,0,1-1.93,4l-1.89-.65a17.61,17.61,0,0,0,1.93-3.82Z"/><path class="cls-19" d="M210.31,249.56c3,0,5.27.85,6.82,2.61,1.41,1.6,2.13,3.91,2.13,6.89A9.89,9.89,0,0,1,217,266a8.93,8.93,0,0,1-6.87,2.6h-6.6v-19Zm-4.63,17.11h4a7.39,7.39,0,0,0,5.59-2,8.08,8.08,0,0,0,1.78-5.64c0-2.55-.56-4.44-1.65-5.67s-3-1.94-5.48-1.94h-4.29Z"/><path class="cls-19" d="M229.37,249.56c3,0,5.27.85,6.82,2.61,1.41,1.6,2.12,3.91,2.12,6.89A9.88,9.88,0,0,1,236,266a8.93,8.93,0,0,1-6.87,2.6h-6.6v-19Zm-4.63,17.11h4a7.4,7.4,0,0,0,5.59-2,8.08,8.08,0,0,0,1.78-5.64c0-2.55-.56-4.44-1.65-5.67s-3-1.94-5.48-1.94h-4.29Z"/><path class="cls-19" d="M248.43,249.56c3,0,5.27.85,6.81,2.61,1.41,1.6,2.13,3.91,2.13,6.89a9.84,9.84,0,0,1-2.29,6.9,8.89,8.89,0,0,1-6.86,2.6h-6.6v-19Zm-4.63,17.11h4a7.37,7.37,0,0,0,5.59-2,8.08,8.08,0,0,0,1.79-5.64c0-2.55-.56-4.44-1.65-5.67s-3-1.94-5.49-1.94H243.8Z"/><path class="cls-19" d="M271.08,256.67a9.49,9.49,0,0,1,1.6,5.61H261.82a6,6,0,0,0,1.25,3.6,3.9,3.9,0,0,0,3.09,1.27,4.25,4.25,0,0,0,2.74-.85,4.83,4.83,0,0,0,1.38-2.15h2.13a6.2,6.2,0,0,1-1.86,3.24,6.41,6.41,0,0,1-4.39,1.55,6.16,6.16,0,0,1-4.74-1.95,8.52,8.52,0,0,1-.08-10.4,5.77,5.77,0,0,1,4.74-2.16A5.87,5.87,0,0,1,271.08,256.67Zm-7.9.74a5.32,5.32,0,0,0-1.31,3.22h8.6c-.27-2.95-1.73-4.42-4.34-4.42A3.84,3.84,0,0,0,263.18,257.41Z"/><path class="cls-19" d="M286,258.72h-2.07a3,3,0,0,0-1.07-1.87,4.31,4.31,0,0,0-2.53-.64,3.78,3.78,0,0,0-2.23.54,1.58,1.58,0,0,0-.88,1.43c0,.59.37,1.09,1.17,1.49a19.34,19.34,0,0,0,2.85.91,12.38,12.38,0,0,1,3.54,1.28,3.19,3.19,0,0,1,1.65,2.82c0,2.82-1.95,4.26-5.83,4.26-3.62,0-5.59-1.6-5.91-4.77h2.08a3.54,3.54,0,0,0,1.14,2.34,4.44,4.44,0,0,0,2.63.64c2.45,0,3.7-.8,3.7-2.34a2,2,0,0,0-1.3-1.78,18.79,18.79,0,0,0-2.93-.88,11.58,11.58,0,0,1-3.4-1.23,2.91,2.91,0,0,1-1.57-2.68,3.14,3.14,0,0,1,1.54-2.77,6.38,6.38,0,0,1,3.78-1C283.73,254.43,285.59,255.84,286,258.72Z"/><path class="cls-19" d="M292.06,250.07a1.35,1.35,0,0,1,.48,1.11,1.55,1.55,0,0,1-.48,1.15,1.66,1.66,0,0,1-1.15.45,1.64,1.64,0,0,1-1.14-.45,1.52,1.52,0,0,1-.45-1.15,1.33,1.33,0,0,1,.45-1.11,1.52,1.52,0,0,1,1.14-.46A1.55,1.55,0,0,1,292.06,250.07ZM292,254.8v13.76h-2.13V254.8Z"/><path class="cls-19" d="M306.54,257.17V254.8h2.13v12.81c0,4.39-2.11,6.6-6.29,6.6a6.88,6.88,0,0,1-4.25-1.12,5,5,0,0,1-1.84-3.36h2.13a3,3,0,0,0,1.17,2,4.62,4.62,0,0,0,2.79.7c2.77,0,4.16-1.55,4.16-4.58v-2.42a5,5,0,0,1-4.64,2.76,5.68,5.68,0,0,1-4.55-2,8.13,8.13,0,0,1,0-9.82,5.6,5.6,0,0,1,4.55-2A5,5,0,0,1,306.54,257.17Zm-7.54.51a5.69,5.69,0,0,0-1.11,3.7,5.93,5.93,0,0,0,1,3.54,3.88,3.88,0,0,0,3.33,1.54,4,4,0,0,0,3.25-1.44,6.62,6.62,0,0,0,0-7.34,3.88,3.88,0,0,0-3.23-1.49A3.81,3.81,0,0,0,299,257.68Z"/><path class="cls-19" d="M323.81,260.1v8.46h-2.13v-8.3c0-2.69-1.22-4-3.62-4a3.37,3.37,0,0,0-2.47,1,4.4,4.4,0,0,0-1.23,3v8.3h-2.13V254.8h2.13v2a4.77,4.77,0,0,1,1.84-1.76,4.84,4.84,0,0,1,2.47-.64C322.08,254.43,323.81,256.32,323.81,260.1Z"/><path class="cls-19" d="M350.88,249.56v1.89h-6.71v17.11H342V251.45h-6.71v-1.89Z"/><path class="cls-19" d="M354.18,249.56l4.18,15.94h.11l4.34-15.94h2.36l4.32,15.94h.1l4.18-15.94h2.45l-5.46,19h-2.42L364,252.73H364l-4.34,15.83h-2.42l-5.46-19Z"/><path class="cls-19" d="M401.19,250.86a6.71,6.71,0,0,1,2.55,4.53h-2.1a4.87,4.87,0,0,0-2-3.19,6.45,6.45,0,0,0-3.78-1.07,6.08,6.08,0,0,0-5.11,2.32,9,9,0,0,0-1.68,5.69,8.71,8.71,0,0,0,1.65,5.64,6.1,6.1,0,0,0,5.09,2.21,6.26,6.26,0,0,0,3.85-1.19,6.35,6.35,0,0,0,2.27-3.76H404a8.69,8.69,0,0,1-15,4,10.49,10.49,0,0,1-2.13-6.87,10.67,10.67,0,0,1,2.18-6.94,8.17,8.17,0,0,1,6.81-3A8.48,8.48,0,0,1,401.19,250.86Z"/><path class="cls-19" d="M418.12,256.56a8.37,8.37,0,0,1,0,10.22,6.23,6.23,0,0,1-4.95,2.16,6.1,6.1,0,0,1-4.92-2.16,7.42,7.42,0,0,1-1.76-5.08,7.58,7.58,0,0,1,1.76-5.14,6.76,6.76,0,0,1,9.85,0Zm-8.33,1.33a7.15,7.15,0,0,0,0,7.59,3.94,3.94,0,0,0,3.4,1.67,4.12,4.12,0,0,0,3.44-1.67,7.15,7.15,0,0,0,0-7.59,4.1,4.1,0,0,0-3.44-1.68A3.93,3.93,0,0,0,409.79,257.89Z"/><path class="cls-19" d="M434.49,260.1v8.46h-2.13v-8.3c0-2.69-1.23-4-3.62-4a3.41,3.41,0,0,0-2.48,1,4.44,4.44,0,0,0-1.22,3v8.3h-2.13V254.8H425v2a4.81,4.81,0,0,1,1.83-1.76,4.9,4.9,0,0,1,2.48-.64C432.76,254.43,434.49,256.32,434.49,260.1Z"/><path class="cls-19" d="M446.2,249.56v1.84h-2.37a1.6,1.6,0,0,0-1.3.45,2.08,2.08,0,0,0-.4,1.44v1.51H446v1.79h-3.88v12H440v-12h-3.46V254.8H440v-1.57a3.75,3.75,0,0,1,.88-2.68,3.44,3.44,0,0,1,2.68-1Z"/><path class="cls-19" d="M458.92,256.67a9.49,9.49,0,0,1,1.6,5.61H449.66a6,6,0,0,0,1.25,3.6,3.9,3.9,0,0,0,3.09,1.27,4.25,4.25,0,0,0,2.74-.85,4.83,4.83,0,0,0,1.38-2.15h2.13a6.2,6.2,0,0,1-1.86,3.24,6.41,6.41,0,0,1-4.39,1.55,6.16,6.16,0,0,1-4.74-1.95,8.52,8.52,0,0,1-.08-10.4,5.77,5.77,0,0,1,4.74-2.16A5.87,5.87,0,0,1,458.92,256.67Zm-7.9.74a5.32,5.32,0,0,0-1.31,3.22h8.6c-.27-2.95-1.73-4.42-4.34-4.42A3.84,3.84,0,0,0,451,257.41Z"/><path class="cls-19" d="M471.22,254.75v2.13a7,7,0,0,0-2.05-.29,3.24,3.24,0,0,0-2.69,1.41,5,5,0,0,0-1.09,3.27v7.29h-2.1V254.8h2.1v2.4a4.92,4.92,0,0,1,1.44-1.89,3.8,3.8,0,0,1,2.5-.88A5,5,0,0,1,471.22,254.75Z"/><path class="cls-19" d="M483.94,256.67a9.49,9.49,0,0,1,1.6,5.61H474.68a6,6,0,0,0,1.25,3.6,3.9,3.9,0,0,0,3.09,1.27,4.25,4.25,0,0,0,2.74-.85,4.75,4.75,0,0,0,1.38-2.15h2.13a6.2,6.2,0,0,1-1.86,3.24,6.41,6.41,0,0,1-4.39,1.55,6.16,6.16,0,0,1-4.74-1.95,8.52,8.52,0,0,1-.08-10.4,5.77,5.77,0,0,1,4.74-2.16A5.87,5.87,0,0,1,483.94,256.67Zm-7.9.74a5.32,5.32,0,0,0-1.31,3.22h8.6c-.27-2.95-1.73-4.42-4.34-4.42A3.84,3.84,0,0,0,476,257.41Z"/><path class="cls-19" d="M499.89,260.1v8.46h-2.13v-8.3c0-2.69-1.23-4-3.62-4a3.39,3.39,0,0,0-2.48,1,4.44,4.44,0,0,0-1.22,3v8.3h-2.13V254.8h2.13v2a4.81,4.81,0,0,1,1.83-1.76,4.88,4.88,0,0,1,2.48-.64C498.16,254.43,499.89,256.32,499.89,260.1Z"/><path class="cls-19" d="M513.49,255.63a5.48,5.48,0,0,1,1.94,3.75h-2.1a3.75,3.75,0,0,0-1.28-2.39,4.16,4.16,0,0,0-2.66-.78,3.79,3.79,0,0,0-3.17,1.52,6.51,6.51,0,0,0-1.12,4,6.31,6.31,0,0,0,1.1,4,3.71,3.71,0,0,0,3.16,1.46,3.67,3.67,0,0,0,4-3.56h2.13a6.63,6.63,0,0,1-2,4,6.16,6.16,0,0,1-4.1,1.33,5.89,5.89,0,0,1-4.81-2.08,7.64,7.64,0,0,1-1.63-5.11,7.78,7.78,0,0,1,1.63-5.14,5.86,5.86,0,0,1,4.84-2.18A6.53,6.53,0,0,1,513.49,255.63Z"/><path class="cls-19" d="M529,256.67a9.49,9.49,0,0,1,1.6,5.61H519.69a6,6,0,0,0,1.25,3.6,3.9,3.9,0,0,0,3.09,1.27,4.25,4.25,0,0,0,2.74-.85,4.75,4.75,0,0,0,1.38-2.15h2.13a6.2,6.2,0,0,1-1.86,3.24,6.41,6.41,0,0,1-4.39,1.55,6.16,6.16,0,0,1-4.74-1.95,8.52,8.52,0,0,1-.08-10.4,5.77,5.77,0,0,1,4.74-2.16A5.87,5.87,0,0,1,529,256.67Zm-7.9.74a5.32,5.32,0,0,0-1.31,3.22h8.6c-.27-2.95-1.73-4.42-4.34-4.42A3.84,3.84,0,0,0,521.05,257.41Z"/><path class="cls-19" d="M553.39,250.7a5.21,5.21,0,0,1,1.7,4,6.48,6.48,0,0,1-1.86,4.47,27,27,0,0,1-3.94,3.07c-2.42,1.62-3.81,3.08-4.15,4.36h10v1.94H542.45a6.81,6.81,0,0,1,1.89-4.71,23.24,23.24,0,0,1,4.12-3.38,23,23,0,0,0,3-2.37,5,5,0,0,0,1.46-3.4,3.47,3.47,0,0,0-1-2.69,4.14,4.14,0,0,0-2.9-1,3.57,3.57,0,0,0-3,1.33,5.85,5.85,0,0,0-1.17,3.81h-2.18a7.19,7.19,0,0,1,1.78-5.09,6.06,6.06,0,0,1,4.66-1.91A6.3,6.3,0,0,1,553.39,250.7Z"/><path class="cls-19" d="M570.16,252.2a16.36,16.36,0,0,1,0,13.73,5.89,5.89,0,0,1-10.28,0,16.36,16.36,0,0,1,0-13.73,5.89,5.89,0,0,1,10.28,0Zm-8.81,1.59a14.13,14.13,0,0,0-.8,5.27,14.27,14.27,0,0,0,.8,5.27,3.83,3.83,0,0,0,7.34,0,14,14,0,0,0,.83-5.27,13.86,13.86,0,0,0-.83-5.27,3.83,3.83,0,0,0-7.34,0Z"/><path class="cls-19" d="M585.86,250.7a5.21,5.21,0,0,1,1.7,4,6.48,6.48,0,0,1-1.86,4.47,26.48,26.48,0,0,1-3.94,3.07c-2.42,1.62-3.8,3.08-4.15,4.36h10v1.94H574.92a6.81,6.81,0,0,1,1.89-4.71,23.4,23.4,0,0,1,4.13-3.38,22.75,22.75,0,0,0,3-2.37,4.94,4.94,0,0,0,1.46-3.4,3.43,3.43,0,0,0-1-2.69,4.13,4.13,0,0,0-2.9-1,3.55,3.55,0,0,0-3,1.33,5.79,5.79,0,0,0-1.18,3.81h-2.18a7.19,7.19,0,0,1,1.78-5.09,6.09,6.09,0,0,1,4.66-1.91A6.29,6.29,0,0,1,585.86,250.7Z"/><path class="cls-19" d="M602.1,250.57a4.71,4.71,0,0,1,1.65,3.78,4.15,4.15,0,0,1-3.12,4.26,5.09,5.09,0,0,1,2.56,1.62,4.16,4.16,0,0,1,1,2.8,5.49,5.49,0,0,1-1.81,4.23,7.69,7.69,0,0,1-9.21.29,6.61,6.61,0,0,1-2.26-4.87h2.21a4.37,4.37,0,0,0,1.49,3.41,5.09,5.09,0,0,0,6.25-.19,3.81,3.81,0,0,0,1.14-2.79,3.29,3.29,0,0,0-1.11-2.66,4.57,4.57,0,0,0-3.09-.94h-1.54v-1.7h1.46a4.38,4.38,0,0,0,2.9-.85,3.12,3.12,0,0,0,1-2.48,3.18,3.18,0,0,0-1-2.47,4.15,4.15,0,0,0-2.9-.93,4.08,4.08,0,0,0-3,1,4.46,4.46,0,0,0-1.31,2.95h-2.15a6.08,6.08,0,0,1,6.41-5.85A6.72,6.72,0,0,1,602.1,250.57Z"/><path class="cls-19" d="M662.22,205.49a6,6,0,0,0-4.3-1.77,5.62,5.62,0,0,0-4.32,1.78,5.3,5.3,0,0,0-1.82,4.25,6,6,0,0,0,6.14,6,6.11,6.11,0,0,0,4.23-1.7,6,6,0,0,0,1.9-4.34A5.28,5.28,0,0,0,662.22,205.49Z"/><rect class="cls-19" x="653.08" y="222.06" width="9.67" height="56.87" rx="1.74"/><path class="cls-19" d="M705.84,220.62a20.61,20.61,0,0,0-11,2.94,22.8,22.8,0,0,0-4.58,3.75V223.8a1.74,1.74,0,0,0-1.74-1.74h-6.2a1.74,1.74,0,0,0-1.73,1.74v53.4a1.74,1.74,0,0,0,1.73,1.74h6.2a1.74,1.74,0,0,0,1.74-1.74V245c.29-4.86,1.83-8.7,4.55-11.43l0,0a12.33,12.33,0,0,1,9.47-4.1c9.18,0,13.45,4.87,13.45,15.31V277.2a1.74,1.74,0,0,0,1.74,1.74h6.2a1.73,1.73,0,0,0,1.73-1.74V244.35c0-7.74-1.82-13.68-5.4-17.66S712.94,220.62,705.84,220.62Z"/><path class="cls-19" d="M779.36,250.2c-2.83-1.74-7.52-3.43-14.31-5.15a65.9,65.9,0,0,1-10.91-3.59c-3.4-1.75-3.8-3.67-3.8-5,0-2.07.91-3.6,2.95-4.95s4.93-2.09,8.64-2.09c4.37,0,7.66.85,9.77,2.52,1.93,1.49,3.17,3.82,3.81,7.13a1.75,1.75,0,0,0,1.71,1.4h6.09a1.72,1.72,0,0,0,1.31-.59,1.75,1.75,0,0,0,.41-1.39c-.83-5.91-3.24-10.43-7.15-13.45s-9.18-4.46-15.84-4.46c-6,0-11.09,1.39-15,4.13-4.39,3-6.53,6.89-6.53,11.86s2.33,8.94,6.92,11.7c2.59,1.62,6.87,3.19,13.48,4.95,7.34,1.87,10.32,3,11.54,3.6,2.94,1.47,4.31,3.34,4.31,5.88,0,7.89-7.85,8.8-13.76,8.8-4.54,0-8-.82-10.11-2.44s-3.72-4.77-4.28-9a1.73,1.73,0,0,0-1.72-1.51h-6.09a1.76,1.76,0,0,0-1.29.57,1.73,1.73,0,0,0-.44,1.34c.67,6.54,3.07,11.55,7.15,14.88s9.75,5,17,5c7.57,0,13.39-1.49,17.31-4.42s6.12-7.6,6.12-13.53C786.6,257.32,784.1,253.09,779.36,250.2Z"/><path class="cls-19" d="M824.63,220.62c-7.18,0-12.9,2.59-17.06,7.71V223.8a1.74,1.74,0,0,0-1.74-1.74h-5.89a1.73,1.73,0,0,0-1.73,1.74v73.85a1.73,1.73,0,0,0,1.73,1.74h6.2a1.74,1.74,0,0,0,1.74-1.74V272.28a20.38,20.38,0,0,0,17,8.1c8,0,14.52-3.07,19.24-9.14l0,0c4.07-5.49,6.13-12.41,6.13-20.56,0-8.45-2.05-15.25-6.25-20.77C839.26,223.73,832.75,220.62,824.63,220.62Zm11.72,45.11c-3,4-7.17,5.91-12.65,5.91a13.84,13.84,0,0,1-11.64-5.52c-2.95-3.81-4.39-8.63-4.39-14.74v-1.14c0-6.23,1.34-11.06,4.1-14.77l0,0c2.88-4.09,6.84-6.08,12.11-6.08,5.47,0,9.56,2,12.53,6.19,2.59,3.74,3.91,8.83,3.91,15.1S839,262,836.35,265.73Z"/><path class="cls-19" d="M875.1,205.49a5.94,5.94,0,0,0-4.3-1.77,5.62,5.62,0,0,0-4.31,1.78,5.3,5.3,0,0,0-1.82,4.25,6,6,0,0,0,6.13,6,6.09,6.09,0,0,0,4.23-1.7,6,6,0,0,0,1.91-4.34A5.28,5.28,0,0,0,875.1,205.49Z"/><rect class="cls-19" x="865.97" y="222.06" width="9.67" height="56.87" rx="1.74"/><path class="cls-19" d="M926,221.88a22.49,22.49,0,0,0-8.39-1.26,17.1,17.1,0,0,0-11.43,4.11,19.48,19.48,0,0,0-3,3v-4a1.74,1.74,0,0,0-1.73-1.74h-6.2a1.74,1.74,0,0,0-1.74,1.74v53.4a1.74,1.74,0,0,0,1.74,1.74h6.2a1.74,1.74,0,0,0,1.73-1.74V249a21,21,0,0,1,3.9-12.91l0-.07a11.49,11.49,0,0,1,10.12-5.63,26.41,26.41,0,0,1,7.66,1.07,2.15,2.15,0,0,0,.5.07,1.75,1.75,0,0,0,1.74-1.74v-6.3A1.74,1.74,0,0,0,926,221.88Z"/><path class="cls-19" d="M983.36,253.52a1.77,1.77,0,0,0,.49-1.27c-.32-9.46-2.48-17-6.43-22.35-4.51-6.16-11.38-9.28-20.41-9.28a23.93,23.93,0,0,0-19.42,9c-4.71,5.7-7,12.51-7,20.83,0,9,2.48,16.28,7.37,21.71s11.26,8.22,19.26,8.22c7.26,0,13.08-2.07,17.79-6.33l0,0a26.77,26.77,0,0,0,7.61-13.48,2,2,0,0,0,.06-.49,1.73,1.73,0,0,0-1.73-1.73h-6.3a1.74,1.74,0,0,0-1.66,1.2,18.82,18.82,0,0,1-5.15,8.61,16.27,16.27,0,0,1-10.65,3.41c-5,0-8.94-1.63-11.92-5-2.62-3-4.2-7.24-4.7-12.5h41.51A1.77,1.77,0,0,0,983.36,253.52Zm-9.51,19.24h0a.52.52,0,0,0-.11.1A.52.52,0,0,1,973.85,272.76Zm-33.06-27.25a21,21,0,0,1,4.92-11.16c2.84-3.29,6.57-4.89,11.41-4.89,9.77,0,15.2,5.26,16.56,16Z"/><path class="cls-19" d="M898.07,211.56a86.91,86.91,0,0,0-173.82,0,2.9,2.9,0,0,0,5.79,0,81.12,81.12,0,1,1,162.24,0,2.9,2.9,0,0,0,5.79,0Z"/><path class="cls-19" d="M854.79,128.52a2.81,2.81,0,0,0,1.12.23,2.89,2.89,0,0,0,2.67-1.78l4.12-9.87a2.89,2.89,0,1,0-5.34-2.23l-4.12,9.87A2.89,2.89,0,0,0,854.79,128.52Z"/><path class="cls-19" d="M866.27,135.06a2.89,2.89,0,0,0,4-.7l6.17-8.73a2.89,2.89,0,1,0-4.72-3.34L865.57,131A2.9,2.9,0,0,0,866.27,135.06Z"/><path class="cls-19" d="M875.76,143.79a2.88,2.88,0,0,0,4.09.28l8-7a2.89,2.89,0,1,0-3.8-4.36l-8.06,7A2.89,2.89,0,0,0,875.76,143.79Z"/></g></svg>