<?xml version="1.0" encoding="utf-8"?>
<!-- Generator: Adobe Illustrator 27.8.1, SVG Export Plug-In . SVG Version: 6.00 Build 0)  -->
<svg version="1.1" id="圖層_1" xmlns="http://www.w3.org/2000/svg" xmlns:xlink="http://www.w3.org/1999/xlink" x="0px" y="0px"
	 viewBox="0 0 818.7 338.1" style="enable-background:new 0 0 818.7 338.1;" xml:space="preserve">
<style type="text/css">
	.st0{fill:#3A2D5A;stroke:#3A2D5A;stroke-width:3;stroke-miterlimit:10;}
	.st1{fill:#746A8F;stroke:#3A2D5A;stroke-width:5;stroke-miterlimit:10;}
	.st2{fill:#84A0C2;stroke:#3A2D5A;stroke-width:5;stroke-miterlimit:10;}
	.st3{fill:#544370;stroke:#3A2D5A;stroke-width:5;stroke-miterlimit:10;}
	.st4{fill:#5F5E91;stroke:#3A2D5A;stroke-width:5;stroke-miterlimit:10;}
	.st5{fill:#575886;stroke:#3A2D5A;stroke-width:5;stroke-miterlimit:10;}
	.st6{fill:#77B8D2;}
	.st7{fill:#FFFFFF;}
	.st8{fill:#D6E5F6;stroke:#3A2D5A;stroke-width:3;stroke-miterlimit:10;}
	.st9{fill:#CE91BE;}
	.st10{fill:#68C2B1;}
</style>
<polygon class="st0" points="722,331.3 0,331.3 0,0 600.7,0 600.7,131.5 722,131.5 "/>
<rect x="120.6" y="118.8" class="st1" width="303.4" height="211.1"/>
<rect x="474.8" y="202.6" class="st2" width="245.3" height="126.4"/>
<rect x="474.8" y="165.6" class="st3" width="103.1" height="37"/>
<rect x="578" y="165.6" class="st4" width="97.3" height="37"/>
<rect x="207.9" y="79.3" class="st4" width="216.1" height="39.4"/>
<rect x="1" y="211.5" class="st5" width="93.4" height="118.8"/>
<rect x="677.3" y="132.2" class="st5" width="133.8" height="70.4"/>
<path class="st6" d="M635,171.1c1.6-0.1,3,1.1,3.1,2.7c0,0.1,0,0.3,0,0.4v19.9c0.1,1.6-1.1,3-2.7,3.1c-0.1,0-0.2,0-0.3,0h-19.9
	c-1.6,0.1-3-1.1-3.1-2.7c0-0.1,0-0.2,0-0.3v-19.9c-0.1-1.6,1.2-2.9,2.8-3c0.1,0,0.1,0,0.2,0"/>
<path class="st7" d="M627.9,185.2v8.2c0,0.5-0.3,1.1-0.8,1.3c-0.6,0.3-1.3,0-1.6-0.6c0-0.1-0.1-0.1-0.1-0.2c0-0.2,0-0.3,0-0.5v-5
	h-0.6v0.3c0,1.6,0,3.2,0,4.8c0,0.6-0.4,1.2-1,1.3c-0.7,0.2-1.3-0.2-1.5-0.9c0,0,0-0.1,0-0.1c0-0.1,0-0.3,0-0.4v-8.1l0,0l-0.1,0.2
	c-0.1,0.4-0.3,0.8-0.4,1.1c-0.2,0.4-0.7,0.6-1.1,0.5c-0.5-0.1-0.7-0.6-0.6-1.1c0.3-1,0.6-1.9,0.9-2.8l0.9-2.8
	c0.1-0.5,0.6-0.9,1.1-0.8h4.2c0.5,0,1,0.3,1.1,0.8c0.6,1.8,1.2,3.6,1.8,5.5c0.1,0.2,0.1,0.5,0,0.7c-0.1,0.4-0.4,0.6-0.8,0.7
	c-0.4,0-0.8-0.2-0.9-0.5c-0.2-0.4-0.3-0.7-0.4-1.1L627.9,185.2L627.9,185.2z"/>
<path class="st7" d="M625.1,178.8c-1.5,0-2.6-1.2-2.6-2.7s1.2-2.6,2.7-2.6c1.4,0,2.6,1.2,2.6,2.6
	C627.8,177.6,626.6,178.8,625.1,178.8C625.1,178.8,625.1,178.8,625.1,178.8z"/>
<polygon class="st8" points="488.4,232.8 476.8,239.5 465.2,246.2 465.2,232.8 465.2,219.4 476.8,226.1 "/>
<polygon class="st8" points="488.4,295.4 476.8,302.1 465.2,308.8 465.2,295.4 465.2,282 476.8,288.7 "/>
<path class="st9" d="M326,85.7c1.7-0.1,3.1,1.2,3.2,2.8c0,0.1,0,0.2,0,0.3v20.3c0.1,1.7-1.2,3.1-2.9,3.1c-0.1,0-0.2,0-0.3,0h-20.2
	c-1.7,0.1-3.1-1.2-3.1-2.9c0-0.1,0-0.2,0-0.2V88.8c-0.1-1.7,1.2-3,2.9-3.1c0.1,0,0.1,0,0.2,0"/>
<path class="st7" d="M321.4,101.1c-0.1,0.2-0.3,0.4-0.5,0.6c-0.3,0.3-0.8,0.2-1-0.1c0,0-0.1-0.1-0.1-0.1c-0.1-0.2-0.2-0.4-0.3-0.5
	c0.1,0.9,0.3,1.9,0.4,2.8c0.1,0.3-0.1,0.7-0.4,0.8c-0.1,0-0.2,0-0.2,0c-0.3,0-0.6,0-0.9,0s-0.3,0.1-0.2,0.3v3.8c0,0.1,0,0.3,0,0.4
	c0,0.5-0.4,0.9-0.9,0.9c-0.5,0-0.9-0.3-1-0.8c0-0.1,0-0.3,0-0.4c0-1.3,0-2.5,0-3.8v-0.3h-0.3v4.1c0,0.2,0,0.3,0,0.5
	c-0.1,0.5-0.5,0.8-1,0.8c-0.5,0-0.9-0.4-0.9-0.8c0-0.1,0-0.3,0-0.5v-4.1h-1c-0.7,0-0.9-0.3-0.8-0.9c0.1-0.9,0.3-1.7,0.4-2.6
	l-0.1,0.3c-0.2,0.5-0.7,0.7-1.2,0.5c0,0,0,0,0,0c-0.5-0.2-0.7-0.8-0.5-1.3c0.8-1.9,1.6-3.7,2.4-5.6c0.2-0.5,0.6-0.8,1.1-0.7
	c1.3,0,2.6,0,3.8,0c0.4,0,0.8,0.2,0.9,0.6c0.8,1.9,1.6,3.9,2.4,5.8l0.1,0.1L321.4,101.1z"/>
<path class="st7" d="M313.2,90.8c0-1.5,1.2-2.7,2.7-2.7c1.5,0,2.7,1.2,2.7,2.7c0,1.5-1.2,2.7-2.7,2.7c0,0,0,0,0,0
	C314.4,93.5,313.2,92.3,313.2,90.8z"/>
<path class="st10" d="M713,153.9h10.2c1.7-0.1,3.1,1.1,3.2,2.8c0,0.1,0,0.3,0,0.4v20.6c0.1,1.7-1.1,3.1-2.8,3.2c-0.1,0-0.3,0-0.4,0
	h-20.6c-1.7,0.1-3.1-1.2-3.2-2.8c0-0.1,0-0.2,0-0.4v-20.6c-0.1-1.7,1.1-3.1,2.8-3.2c0.1,0,0.2,0,0.3,0H713z M718.3,161.4h2
	c0.8,0.1,1.6-0.5,1.7-1.3c0.1-0.8-0.5-1.6-1.3-1.7c-0.1,0-0.2,0-0.3,0h-4.7h-0.3v5h-3.9v5h-3.9v5c-0.7,0-1.3,0-2,0
	c-0.3,0-0.6,0.1-0.8,0.2c-0.6,0.3-1,1-0.8,1.6c0.1,0.7,0.7,1.2,1.4,1.2h5.1h0.1v-5h3.8v-5h3.9L718.3,161.4z"/>
<path class="st7" d="M718.3,161.4v5h-3.9v5h-3.9v5h-0.1h-5.1c-0.7,0-1.3-0.5-1.4-1.2c-0.1-0.7,0.2-1.3,0.8-1.6
	c0.3-0.1,0.5-0.1,0.8-0.2c0.6,0,1.3,0,2,0v-5h3.9v-5h3.9v-5h0.3h4.7c0.8-0.1,1.6,0.5,1.7,1.3c0.1,0.8-0.5,1.6-1.3,1.7
	c-0.1,0-0.2,0-0.3,0L718.3,161.4z"/>
<path class="st10" d="M47.7,228.7H58c1.7-0.1,3.1,1.1,3.2,2.8c0,0.1,0,0.3,0,0.4c0,6.9,0,13.7,0,20.6c0.1,1.7-1.1,3.1-2.8,3.2
	c-0.1,0-0.3,0-0.4,0H37.4c-1.7,0.1-3.1-1.2-3.2-2.8c0-0.1,0-0.2,0-0.4v-20.6c-0.1-1.7,1.2-3.1,2.8-3.2c0.1,0,0.2,0,0.3,0H47.7z
	 M53,236.2h2c0.8,0,1.5-0.7,1.5-1.5s-0.7-1.5-1.5-1.5h-4.7H50v5h-3.9v5h-3.9v5c-0.7,0-1.3,0-2,0c-0.3,0-0.6,0.1-0.8,0.2
	c-0.7,0.4-1,1.3-0.7,2c0.2,0.5,0.7,0.8,1.3,0.8h5.1h0.1v-5h3.8v-5H53L53,236.2z"/>
<path class="st7" d="M53,236.2v5h-3.9v5h-3.8v5h-0.1h-5.1c-0.8,0-1.5-0.7-1.4-1.5c0-0.6,0.3-1.1,0.8-1.3c0.3-0.1,0.5-0.2,0.8-0.2
	c0.6,0,1.3,0,2,0v-5h3.9v-5h3.9v-5h0.3h4.7c0.8,0,1.5,0.7,1.5,1.5s-0.7,1.5-1.5,1.5L53,236.2z"/>
<path class="st10" d="M539.9,184.1v10.3c0.1,1.7-1.1,3.1-2.7,3.2c-0.2,0-0.3,0-0.5,0h-20.6c-1.7,0.1-3.1-1.1-3.2-2.8
	c0-0.2,0-0.3,0-0.5v-20.7c-0.1-1.7,1.1-3.1,2.8-3.2c0.1,0,0.3,0,0.4,0h20.7c1.7-0.1,3.1,1.1,3.2,2.8c0,0.1,0,0.3,0,0.4L539.9,184.1z
	 M518.9,187.2v0.4c0,1.3,0,2.6,0,4c-0.1,0.8,0.5,1.6,1.4,1.6c0.1,0,0.2,0,0.3,0h1.2c0.8,0.1,1.6-0.5,1.7-1.3c0-0.1,0-0.2,0-0.3
	c0-1.3,0-2.6,0-3.8v-0.6h0.2c0.7-0.1,1.3-0.8,1.3-1.5c0-0.8,0-1.5,0-2.3c0-1.5-1.1-2.7-2.5-2.9c-0.7-0.1-1.4-0.1-2.1,0
	c-1.4,0-2.6,1.1-2.8,2.4c-0.1,1-0.1,2-0.1,3c0,0.5,0.3,0.9,0.8,1.1C518.4,187.1,518.6,187.1,518.9,187.2L518.9,187.2z M531.6,182.6
	h2.3c0.4,0.1,0.8-0.2,0.9-0.7c0-0.2,0-0.5-0.2-0.6l-2.2-3.6c-0.2-0.4-0.6-0.6-1-0.4c-0.2,0.1-0.4,0.2-0.4,0.4l-2.3,3.6
	c-0.2,0.2-0.2,0.6-0.1,0.9c0.2,0.3,0.5,0.4,0.8,0.4L531.6,182.6z M531.6,185.6h-2.3c-0.3,0-0.6,0.1-0.8,0.4
	c-0.1,0.3-0.1,0.6,0.1,0.9l2.3,3.6c0.2,0.4,0.6,0.6,1,0.4c0.2-0.1,0.4-0.2,0.4-0.4c0.8-1.2,1.5-2.4,2.3-3.6c0.2-0.2,0.2-0.6,0.1-0.9
	c-0.2-0.3-0.5-0.4-0.8-0.4L531.6,185.6z M519.2,177c0.1,1,1,1.8,2,1.7c0.9-0.1,1.7-0.8,1.7-1.7c0.1-1-0.7-1.9-1.7-2s-1.9,0.7-2,1.7
	C519.2,176.8,519.2,176.9,519.2,177z"/>
<path class="st7" d="M518.9,187.2c-0.2-0.1-0.5-0.1-0.7-0.2c-0.4-0.2-0.7-0.6-0.8-1.1c-0.1-1,0-2,0.1-3c0.2-1.4,1.4-2.4,2.8-2.4
	c0.7-0.1,1.4-0.1,2.1,0c1.4,0.2,2.5,1.5,2.5,2.9c0,0.8,0,1.5,0,2.3c0,0.8-0.5,1.4-1.3,1.5l-0.2,0.1v0.5c0,1.3,0,2.6,0,3.8
	c0.1,0.8-0.5,1.6-1.4,1.7c-0.1,0-0.2,0-0.3,0h-1.2c-0.8,0.1-1.6-0.6-1.6-1.4c0-0.1,0-0.2,0-0.3c0-1.3,0-2.6,0-4L518.9,187.2z"/>
<path class="st7" d="M531.6,182.6h-2.2c-0.3,0-0.6-0.1-0.8-0.4c-0.1-0.3-0.1-0.6,0.1-0.9l2.3-3.6c0.2-0.4,0.6-0.6,1-0.4
	c0.2,0.1,0.4,0.2,0.4,0.4l2.2,3.6c0.3,0.3,0.3,0.8-0.1,1.1c-0.2,0.2-0.4,0.2-0.6,0.2L531.6,182.6z"/>
<path class="st7" d="M531.7,185.6h2.3c0.3,0,0.6,0.1,0.8,0.4c0.1,0.3,0.1,0.6-0.1,0.9c-0.8,1.2-1.5,2.4-2.3,3.6
	c-0.2,0.4-0.6,0.6-1,0.4c-0.2-0.1-0.4-0.2-0.4-0.4l-2.3-3.6c-0.2-0.2-0.2-0.6-0.1-0.9c0.1-0.3,0.5-0.5,0.8-0.4L531.7,185.6z"/>
<path class="st7" d="M519.2,177c0-1,0.8-1.9,1.9-1.9s1.9,0.8,1.9,1.9s-0.8,1.9-1.9,1.9C520.1,178.9,519.3,178,519.2,177
	C519.3,177,519.2,177,519.2,177z"/>
<path class="st7" d="M544.2,285.3h26.7v9.9h-41.4v-7.4c4.4-6.8,10-12.7,16.5-17.5c8.8-6.6,12.9-11.5,12.2-14.7
	c-0.2-4.9-2.7-7.4-7.6-7.4c-5.1-0.2-8.2,3-9.4,9.4l-11.4-2.3c2.2-11.3,9.7-17,22.6-17c11.7,0.5,17.9,5.8,18.8,16
	c0.8,7.1-3.3,13.3-12.5,18.5C553.4,276.5,548.6,280.7,544.2,285.3z"/>
<path class="st7" d="M625.1,267.3c0.3,19.5-6.9,29-21.6,28.7c-14.2-0.3-21.4-9.8-21.6-28.5c0.5-19,7.7-28.8,21.6-29.5
	C617.7,238.2,624.9,248,625.1,267.3z M611.9,267.5c0.2-13.7-2.5-20.4-8.1-20.1c-5.8-0.2-8.6,6.5-8.6,20.1c0,13,2.9,19.6,8.6,19.6
	C609.4,287.1,612.1,280.6,611.9,267.5z"/>
<path class="st7" d="M650.9,285.3h26.7v9.9h-41.4v-7.4c4.4-6.8,10-12.7,16.5-17.5c8.8-6.6,12.9-11.5,12.2-14.7
	c-0.2-4.9-2.7-7.4-7.6-7.4c-5.1-0.2-8.2,3-9.4,9.4l-11.4-2.3c2.2-11.3,9.7-17,22.6-17c11.7,0.5,17.9,5.8,18.8,16
	c0.9,7.1-3.3,13.3-12.4,18.5C660.2,276.5,655.3,280.7,650.9,285.3z"/>
</svg>
