<?xml version="1.0" encoding="utf-8"?>
<!-- Generator: Adobe Illustrator 27.8.1, SVG Export Plug-In . SVG Version: 6.00 Build 0)  -->
<svg version="1.1" id="圖層_1" xmlns="http://www.w3.org/2000/svg" xmlns:xlink="http://www.w3.org/1999/xlink" x="0px" y="0px"
	 viewBox="0 0 835.5 361.3" style="enable-background:new 0 0 835.5 361.3;" xml:space="preserve">
<style type="text/css">
	.st0{fill:#3A2D5A;stroke:#3A2D5A;stroke-width:3;stroke-miterlimit:10;}
	.st1{fill:#746A8F;stroke:#3A2D5A;stroke-width:5;stroke-miterlimit:10;}
	.st2{fill:#84A0C2;stroke:#3A2D5A;stroke-width:5;stroke-miterlimit:10;}
	.st3{fill:#544370;stroke:#3A2D5A;stroke-width:5;stroke-miterlimit:10;}
	.st4{fill:#5F5E91;stroke:#3A2D5A;stroke-width:5;stroke-miterlimit:10;}
	.st5{fill:#575886;stroke:#3A2D5A;stroke-width:5;stroke-miterlimit:10;}
	.st6{fill:#77B8D2;}
	.st7{fill:#FFFFFF;}
	.st8{fill:#D6E5F6;stroke:#3A2D5A;stroke-width:3;stroke-miterlimit:10;}
	.st9{fill:#CE91BE;}
	.st10{fill:#68C2B1;}
</style>
<polygon class="st0" points="737.2,350 15.2,350 15.2,18.7 615.9,18.7 615.9,150.2 737.2,150.2 "/>
<rect x="135.7" y="221.3" class="st1" width="151.7" height="127.2"/>
<rect x="287.4" y="221.3" class="st2" width="151.7" height="127.2"/>
<rect x="554.3" y="19.5" class="st1" width="61.6" height="131.5"/>
<rect x="380.3" y="19.5" class="st1" width="174" height="131.5"/>
<rect x="198.4" y="19.5" class="st1" width="181.9" height="131.5"/>
<rect x="16.2" y="19.5" class="st1" width="184.3" height="131.5"/>
<rect x="490" y="221.3" class="st2" width="245.3" height="126.4"/>
<rect x="490" y="184.3" class="st3" width="86.1" height="37"/>
<rect x="593.1" y="184.3" class="st4" width="97.3" height="37"/>
<rect x="223" y="181.6" class="st4" width="216.1" height="39.4"/>
<rect x="16.2" y="230.2" class="st5" width="93.4" height="118.8"/>
<rect x="692.5" y="150.9" class="st5" width="133.8" height="70.4"/>
<path class="st6" d="M650.1,189.8c1.6-0.1,3,1.1,3.1,2.7c0,0.1,0,0.3,0,0.4v19.9c0.1,1.6-1.1,3-2.7,3.1c-0.1,0-0.2,0-0.3,0h-19.9
	c-1.6,0.1-3-1.1-3.1-2.7c0-0.1,0-0.2,0-0.3v-19.9c-0.1-1.6,1.2-2.9,2.8-3c0.1,0,0.1,0,0.2,0"/>
<path class="st7" d="M643,203.9v8.2c0,0.5-0.3,1.1-0.8,1.3c-0.6,0.3-1.3,0-1.6-0.6c0-0.1-0.1-0.1-0.1-0.2c0-0.2,0-0.3,0-0.5v-5H640
	v0.3c0,1.6,0,3.2,0,4.8c0,0.6-0.4,1.2-1,1.3c-0.7,0.2-1.3-0.2-1.5-0.9c0,0,0-0.1,0-0.1c0-0.1,0-0.3,0-0.4v-8.1l0,0l-0.1,0.2
	c-0.1,0.4-0.3,0.8-0.4,1.1c-0.2,0.4-0.7,0.6-1.1,0.5c-0.5-0.1-0.7-0.6-0.6-1.1c0.3-1,0.6-1.9,0.9-2.8l0.9-2.8
	c0.1-0.5,0.6-0.9,1.1-0.8h4.2c0.5,0,1,0.3,1.1,0.8c0.6,1.8,1.2,3.6,1.8,5.5c0.1,0.2,0.1,0.5,0,0.7c-0.1,0.4-0.4,0.6-0.8,0.7
	c-0.4,0-0.8-0.2-0.9-0.5c-0.2-0.4-0.3-0.7-0.4-1.1L643,203.9L643,203.9z"/>
<path class="st7" d="M640.3,197.5c-1.5,0-2.6-1.2-2.6-2.7s1.2-2.6,2.7-2.6c1.4,0,2.6,1.2,2.6,2.6C643,196.3,641.8,197.5,640.3,197.5
	C640.3,197.5,640.3,197.5,640.3,197.5z"/>
<polygon class="st8" points="425.2,255.8 436.8,249.1 448.5,242.4 448.5,255.8 448.5,269.2 436.8,262.5 "/>
<polygon class="st8" points="503.6,254.5 491.9,261.2 480.3,267.9 480.3,254.5 480.3,241.1 491.9,247.8 "/>
<polygon class="st8" points="503.6,316.1 491.9,322.8 480.3,329.5 480.3,316.1 480.3,302.6 491.9,309.4 "/>
<polygon class="st8" points="425.2,312.9 436.8,306.2 448.5,299.5 448.5,312.9 448.5,326.3 436.8,319.6 "/>
<path class="st9" d="M341.2,188.1c1.7-0.1,3.1,1.2,3.2,2.8c0,0.1,0,0.2,0,0.3v20.2c0.1,1.7-1.2,3.1-2.9,3.1c-0.1,0-0.2,0-0.3,0H321
	c-1.7,0.1-3.1-1.2-3.1-2.9c0-0.1,0-0.2,0-0.2v-20.3c-0.1-1.7,1.2-3,2.9-3.1c0.1,0,0.1,0,0.2,0"/>
<path class="st7" d="M336.5,203.5c-0.1,0.2-0.3,0.4-0.5,0.6c-0.3,0.3-0.8,0.2-1-0.1c0,0-0.1-0.1-0.1-0.1c-0.1-0.2-0.2-0.4-0.3-0.5
	c0.1,0.9,0.3,1.8,0.4,2.8c0.1,0.3-0.1,0.7-0.5,0.8c-0.1,0-0.2,0-0.2,0c-0.3,0-0.6,0-0.9,0s-0.3,0.1-0.3,0.3c0,1.3,0,2.5,0,3.8
	c0,0.1,0,0.3,0,0.4c-0.1,0.5-0.7,0.8-1.2,0.7c-0.3-0.1-0.6-0.3-0.7-0.6c0-0.1,0-0.3,0-0.4v-4.1h-0.3v4.1c0,0.2,0,0.3,0,0.5
	c-0.2,0.5-0.8,0.8-1.3,0.6c-0.3-0.1-0.5-0.3-0.6-0.6c0-0.2,0-0.3,0-0.5c0-1.2,0-2.5,0-3.7v-0.3h-1c-0.7,0-0.9-0.3-0.8-1
	c0.1-0.9,0.3-1.7,0.4-2.6c0,0.1-0.1,0.2-0.2,0.3c-0.2,0.5-0.8,0.7-1.3,0.5c-0.5-0.2-0.7-0.8-0.5-1.3l0,0l2.4-5.6
	c0.2-0.5,0.6-0.8,1.1-0.7c1.3,0,2.6,0,3.8,0c0.4,0,0.8,0.2,0.9,0.6c0.8,1.9,1.6,3.9,2.4,5.8c0,0,0,0.1,0,0.1L336.5,203.5z"/>
<path class="st7" d="M328.3,193.2c0-1.5,1.2-2.7,2.7-2.7c1.5,0,2.7,1.2,2.7,2.7s-1.2,2.7-2.7,2.7
	C329.5,195.9,328.3,194.7,328.3,193.2z"/>
<path class="st10" d="M728.2,172.6h10.2c1.7-0.1,3.1,1.1,3.2,2.8c0,0.1,0,0.3,0,0.4v20.6c0.1,1.7-1.1,3.1-2.8,3.2
	c-0.1,0-0.3,0-0.4,0h-20.6c-1.7,0.1-3.1-1.2-3.2-2.8c0-0.1,0-0.2,0-0.4v-20.6c-0.1-1.7,1.1-3.1,2.8-3.2c0.1,0,0.2,0,0.3,0H728.2z
	 M733.5,180.1h2c0.8,0.1,1.6-0.5,1.7-1.3c0.1-0.8-0.5-1.6-1.3-1.7c-0.1,0-0.2,0-0.3,0h-4.7h-0.3v5h-3.9v5h-3.9v5c-0.7,0-1.3,0-2,0
	c-0.3,0-0.6,0.1-0.8,0.2c-0.6,0.3-1,1-0.8,1.6c0.1,0.7,0.7,1.2,1.4,1.2h5.1h0.1v-5h3.8v-5h3.9L733.5,180.1z"/>
<path class="st7" d="M733.5,180.1v5h-3.9v5h-3.9v5h-0.1h-5.1c-0.7,0-1.3-0.5-1.4-1.2c-0.1-0.7,0.2-1.3,0.8-1.6
	c0.3-0.1,0.5-0.1,0.8-0.2c0.6,0,1.3,0,2,0v-5h3.9v-5h3.9v-5h0.3h4.7c0.8-0.1,1.6,0.5,1.7,1.3c0.1,0.8-0.5,1.6-1.3,1.7
	c-0.1,0-0.2,0-0.3,0L733.5,180.1z"/>
<path class="st10" d="M62.9,247.4h10.2c1.7-0.1,3.1,1.1,3.2,2.8c0,0.1,0,0.3,0,0.4c0,6.9,0,13.7,0,20.6c0.1,1.7-1.1,3.1-2.8,3.2
	c-0.1,0-0.3,0-0.4,0H52.5c-1.7,0.1-3.1-1.2-3.2-2.8c0-0.1,0-0.2,0-0.4v-20.6c-0.1-1.7,1.2-3.1,2.8-3.2c0.1,0,0.2,0,0.3,0H62.9z
	 M68.2,254.9h2c0.8,0,1.5-0.7,1.5-1.5s-0.7-1.5-1.5-1.5h-4.7h-0.3v5h-3.9v5h-3.9v5c-0.7,0-1.3,0-2,0c-0.3,0-0.6,0.1-0.8,0.2
	c-0.7,0.4-1,1.3-0.7,2c0.2,0.5,0.7,0.8,1.3,0.8h5.1h0.1v-5h3.8v-5h3.9L68.2,254.9z"/>
<path class="st7" d="M68.2,254.9v5h-3.9v5h-3.8v5h-0.1h-5.1c-0.8,0-1.5-0.7-1.4-1.5c0-0.6,0.3-1.1,0.8-1.3c0.3-0.1,0.5-0.2,0.8-0.2
	c0.6,0,1.3,0,2,0v-5h3.9v-5h3.9v-5h0.3h4.7c0.8,0,1.5,0.7,1.5,1.5s-0.7,1.5-1.5,1.5L68.2,254.9z"/>
<path class="st10" d="M550.2,203.2v10.3c0.1,1.7-1.1,3.1-2.7,3.2c-0.2,0-0.3,0-0.5,0h-20.6c-1.7,0.1-3.1-1.1-3.2-2.8
	c0-0.2,0-0.3,0-0.5v-20.7c-0.1-1.7,1.1-3.1,2.8-3.2c0.1,0,0.3,0,0.4,0H547c1.7-0.1,3.1,1.1,3.2,2.8c0,0.1,0,0.3,0,0.4L550.2,203.2z
	 M529.1,206.2v0.4c0,1.3,0,2.6,0,4c-0.1,0.8,0.5,1.6,1.4,1.6c0.1,0,0.2,0,0.3,0h1.2c0.8,0.1,1.6-0.5,1.7-1.3c0-0.1,0-0.2,0-0.3
	c0-1.3,0-2.6,0-3.8v-0.5l0.2-0.1c0.7-0.1,1.3-0.8,1.3-1.5c0-0.8,0-1.5,0-2.3c0-1.5-1.1-2.7-2.5-2.9c-0.7-0.1-1.4-0.1-2.1,0
	c-1.4,0-2.6,1.1-2.8,2.4c-0.1,1-0.1,2-0.1,3c0,0.5,0.3,0.9,0.8,1.1C528.6,206.1,528.9,206.2,529.1,206.2L529.1,206.2z M541.9,201.7
	h2.3c0.4,0.1,0.8-0.2,0.9-0.7c0-0.2,0-0.5-0.2-0.6l-2.2-3.6c-0.2-0.4-0.6-0.6-1-0.4c-0.2,0.1-0.4,0.2-0.4,0.4l-2.3,3.6
	c-0.2,0.2-0.2,0.6-0.1,0.9c0.2,0.3,0.5,0.4,0.8,0.4L541.9,201.7z M541.9,204.7h-2.3c-0.3,0-0.6,0.1-0.8,0.4
	c-0.1,0.3-0.1,0.6,0.1,0.9c0.8,1.2,1.5,2.4,2.3,3.6c0.2,0.4,0.6,0.6,1,0.4c0.2-0.1,0.4-0.2,0.4-0.4c0.8-1.2,1.5-2.4,2.3-3.6
	c0.2-0.2,0.2-0.6,0.1-0.9c-0.2-0.3-0.5-0.4-0.8-0.4H541.9z M529.5,196c0,1,0.9,1.9,1.9,1.9s1.9-0.9,1.9-1.9s-0.9-1.9-1.9-1.9
	C530.3,194.1,529.5,195,529.5,196C529.5,196,529.5,196,529.5,196L529.5,196z"/>
<path class="st7" d="M529.1,206.2c-0.2-0.1-0.5-0.1-0.7-0.2c-0.4-0.2-0.7-0.6-0.8-1.1c-0.1-1,0-2,0.1-3c0.2-1.4,1.4-2.4,2.8-2.4
	c0.7-0.1,1.4-0.1,2.1,0c1.4,0.2,2.5,1.5,2.5,2.9c0,0.8,0,1.5,0,2.3c0,0.7-0.5,1.4-1.3,1.5l-0.2,0.1v0.5c0,1.3,0,2.6,0,3.8
	c0.1,0.8-0.5,1.6-1.4,1.7c-0.1,0-0.2,0-0.3,0h-1.2c-0.8,0.1-1.6-0.6-1.6-1.4c0-0.1,0-0.2,0-0.3c0-1.3,0-2.6,0-4L529.1,206.2z"/>
<path class="st7" d="M541.9,201.7h-2.2c-0.3,0-0.6-0.1-0.8-0.4c-0.1-0.3-0.1-0.6,0.1-0.9l2.3-3.6c0.2-0.4,0.6-0.6,1-0.4
	c0.2,0.1,0.4,0.2,0.4,0.4l2.2,3.6c0.3,0.3,0.3,0.8-0.1,1.1c-0.2,0.2-0.4,0.2-0.6,0.2L541.9,201.7z"/>
<path class="st7" d="M541.9,204.7h2.3c0.3,0,0.6,0.1,0.8,0.4c0.1,0.3,0.1,0.6-0.1,0.9c-0.8,1.2-1.5,2.4-2.3,3.6
	c-0.2,0.4-0.6,0.6-1,0.4c-0.2-0.1-0.4-0.2-0.4-0.4c-0.8-1.2-1.5-2.4-2.3-3.6c-0.2-0.2-0.2-0.6-0.1-0.9c0.2-0.3,0.5-0.5,0.8-0.4
	H541.9z"/>
<path class="st7" d="M529.5,196c0-1,0.8-1.9,1.9-1.9s1.9,0.8,1.9,1.9s-0.8,1.9-1.9,1.9C530.4,197.9,529.5,197.1,529.5,196
	C529.5,196,529.5,196,529.5,196z"/>
<path class="st7" d="M544.9,300.2l12.7-2.5c0.8,5.4,4,8.1,9.4,8.1c5.3-0.2,8-2.8,8.1-7.9c0.2-5.2-3.9-7.9-12.2-7.9h-5.1v-9.4h4.8
	c7.4,0,11.2-2.5,11.2-7.4c-0.2-4.7-2.5-7.1-7.1-7.1c-4.7,0.3-7.7,3.1-8.9,8.1l-11.9-2.3c2.4-10,9.6-15.1,21.8-15.2
	c11.7,0.3,17.9,5.2,18.8,14.7c0.2,7-3.8,11.4-11.9,13.2v0.2c8.1,1.3,12.5,5.9,13.2,13.7c-0.7,10.3-7.9,15.7-21.6,16
	C554.7,315.4,547.6,310.5,544.9,300.2z"/>
<path class="st7" d="M641.8,286c0.3,19.5-6.9,29-21.6,28.7c-14.2-0.3-21.4-9.8-21.6-28.5c0.5-19,7.7-28.8,21.6-29.5
	C634.4,256.9,641.6,266.7,641.8,286z M628.6,286.2c0.2-13.7-2.5-20.4-8.1-20.1c-5.8-0.2-8.6,6.5-8.6,20.1c0,13,2.9,19.6,8.6,19.6
	C626.1,305.8,628.8,299.3,628.6,286.2L628.6,286.2z"/>
<path class="st7" d="M667.6,304h26.7v9.9h-41.4v-7.4c4.4-6.8,10-12.7,16.5-17.5c8.8-6.6,12.9-11.5,12.2-14.7
	c-0.2-4.9-2.7-7.4-7.6-7.4c-5.1-0.2-8.2,3-9.4,9.4l-11.4-2.3c2.2-11.3,9.7-17,22.6-17c11.7,0.5,17.9,5.8,18.8,16
	c0.8,7.1-3.3,13.3-12.5,18.5C676.8,295.2,672,299.4,667.6,304z"/>
<path class="st7" d="M306,296.6l9.2-1.8c0.6,3.9,2.9,5.9,6.8,5.9c3.8-0.1,5.7-2,5.9-5.7c0.1-3.8-2.8-5.7-8.8-5.7h-3.7v-6.8h3.5
	c5.4,0,8.1-1.8,8.1-5.3c-0.1-3.4-1.8-5.1-5.1-5.1c-3.4,0.3-5.6,2.2-6.4,5.9l-8.6-1.6c1.7-7.2,6.9-10.9,15.8-11
	c8.4,0.2,12.9,3.8,13.5,10.6c0.1,5-2.8,8.2-8.6,9.5v0.2c5.9,1,9,4.3,9.5,9.9c-0.5,7.4-5.7,11.3-15.6,11.5
	C313.1,307.5,308,304.1,306,296.6z"/>
<path class="st7" d="M375.9,286.3c0.2,14-5,20.9-15.6,20.7c-10.2-0.2-15.4-7.1-15.6-20.5c0.4-13.7,5.5-20.8,15.6-21.2
	C370.6,265.4,375.8,272.4,375.9,286.3z M366.4,286.5c0.1-9.9-1.8-14.7-5.9-14.5c-4.2-0.1-6.2,4.7-6.2,14.5c0,9.4,2.1,14.1,6.2,14.1
	C364.6,300.6,366.5,295.9,366.4,286.5z"/>
<path class="st7" d="M384.1,296.6l9.2-1.8c0.6,3.9,2.9,5.9,6.8,5.9c3.8-0.1,5.7-2,5.9-5.7c0.1-3.8-2.8-5.7-8.8-5.7h-3.7v-6.8h3.5
	c5.4,0,8.1-1.8,8.1-5.3c-0.1-3.4-1.8-5.1-5.1-5.1c-3.4,0.3-5.6,2.2-6.4,5.9l-8.6-1.6c1.7-7.2,7-10.9,15.8-11
	c8.4,0.2,13,3.8,13.5,10.6c0.1,5-2.7,8.2-8.6,9.5v0.2c5.9,1,9,4.3,9.5,9.9c-0.5,7.4-5.7,11.3-15.6,11.5
	C391.2,307.5,386,304.1,384.1,296.6z"/>
</svg>
