<svg id="圖層_1" data-name="圖層 1" xmlns="http://www.w3.org/2000/svg" viewBox="0 0 1080 491.14"><defs><style>.cls-1{fill:#3a2d5a;}.cls-1,.cls-2,.cls-3,.cls-4,.cls-5,.cls-6,.cls-9{stroke:#3a2d5a;stroke-miterlimit:10;}.cls-1,.cls-9{stroke-width:3px;}.cls-2{fill:#746a8f;}.cls-2,.cls-3,.cls-4,.cls-5,.cls-6{stroke-width:5px;}.cls-3{fill:#84a0c2;}.cls-4{fill:#544370;}.cls-5{fill:#5f5e91;}.cls-6{fill:#575886;}.cls-7{fill:#77b8d2;}.cls-8{fill:#fff;}.cls-9{fill:#d6e5f6;}.cls-10{fill:#ce91be;}.cls-11{fill:#68c2b1;}</style></defs><polygon class="cls-1" points="942.14 453.73 29.79 453.73 29.79 35.14 788.88 35.14 788.88 201.35 942.14 201.35 942.14 453.73"/><rect class="cls-2" x="182.15" y="185.22" width="383.44" height="266.72"/><rect class="cls-3" x="629.8" y="291.17" width="310.02" height="159.72"/><rect class="cls-4" x="629.8" y="244.44" width="130.3" height="46.74"/><rect class="cls-5" x="760.11" y="244.44" width="122.99" height="46.74"/><rect class="cls-5" x="292.5" y="135.34" width="273.09" height="49.74"/><rect class="cls-6" x="31.06" y="302.38" width="118.01" height="150.1"/><rect class="cls-6" x="885.66" y="202.22" width="169.07" height="88.95"/><path class="cls-7" d="M832.19,251.36a3.67,3.67,0,0,1,3.91,3.9v25.09a3.67,3.67,0,0,1-3.88,3.9H807.09a3.67,3.67,0,0,1-3.87-3.86V255.21a3.66,3.66,0,0,1,3.84-3.85"/><path class="cls-8" d="M823.18,269.2v.58q0,4.89,0,9.77a1.61,1.61,0,0,1-1,1.61,1.55,1.55,0,0,1-2.13-1.09,2.37,2.37,0,0,1-.06-.59v-6.39h-.7v.36c0,2.05,0,4.09,0,6.14a1.56,1.56,0,0,1-3.11.32,4.58,4.58,0,0,1,0-.53V269.17l-.06,0c0,.1-.09.19-.12.28-.19.48-.35,1-.56,1.44a1.11,1.11,0,0,1-1.42.59,1.13,1.13,0,0,1-.74-1.38c.37-1.2.77-2.39,1.16-3.59l1.18-3.58a1.29,1.29,0,0,1,1.41-1h5.3a1.35,1.35,0,0,1,1.41,1.05c.75,2.29,1.51,4.59,2.25,6.89a2,2,0,0,1,.07.9,1.15,1.15,0,0,1-2.14.17c-.21-.46-.37-.94-.55-1.41,0-.09-.07-.18-.11-.27Z"/><path class="cls-8" d="M819.71,261.05a3.35,3.35,0,1,1,3.38-3.34A3.37,3.37,0,0,1,819.71,261.05Z"/><polygon class="cls-9" points="646.95 329.3 632.27 337.77 617.59 346.25 617.59 329.3 617.59 312.34 632.27 320.82 646.95 329.3"/><polygon class="cls-9" points="646.95 408.37 632.27 416.85 617.59 425.32 617.59 408.37 617.59 391.42 632.27 399.89 646.95 408.37"/><path class="cls-10" d="M441.8,143.46a3.74,3.74,0,0,1,4,4V173a3.73,3.73,0,0,1-4,4q-12.79,0-25.59,0A3.74,3.74,0,0,1,412.3,173V147.38a3.73,3.73,0,0,1,3.91-3.92"/><path class="cls-8" d="M435.89,162.94a3.52,3.52,0,0,1-.58.78.93.93,0,0,1-1.42-.33,6.65,6.65,0,0,0-.42-.66c.19,1.17.38,2.33.56,3.5a.8.8,0,0,1-.87,1c-.38,0-.77,0-1.15,0s-.33.08-.33.33c0,1.58,0,3.17,0,4.76a4.36,4.36,0,0,1,0,.51,1.21,1.21,0,0,1-2.41.1,2.85,2.85,0,0,1,0-.51v-5.17h-.43v5.16a3,3,0,0,1-.05.6,1.17,1.17,0,0,1-1.24.94,1.15,1.15,0,0,1-1.14-1,3.77,3.77,0,0,1,0-.58v-5.12h-1.21c-.83,0-1.12-.36-1-1.2.2-1.09.4-2.18.55-3.3-.07.13-.13.26-.19.39a1.19,1.19,0,1,1-2.17-1q1.5-3.53,3-7a1.42,1.42,0,0,1,1.45-.93c1.61,0,3.23,0,4.85,0a1.12,1.12,0,0,1,1.17.79q1.5,3.68,3,7.34a.52.52,0,0,0,.06.13Z"/><path class="cls-8" d="M425.57,149.89a3.44,3.44,0,1,1,3.42,3.44A3.43,3.43,0,0,1,425.57,149.89Z"/><path class="cls-11" d="M930.77,229.66h13a3.81,3.81,0,0,1,4.06,4v26a3.81,3.81,0,0,1-4,4h-26a3.8,3.8,0,0,1-4-4q0-13.05,0-26.09a3.79,3.79,0,0,1,4-4Zm6.74,9.47h2.54a1.9,1.9,0,1,0,0-3.79h-5.9l-.43,0v6.29h-4.88V248H924v6.29c-.86,0-1.67,0-2.47,0a3,3,0,0,0-1,.2,1.88,1.88,0,0,0,.77,3.58c2.12,0,4.25,0,6.38,0a.75.75,0,0,0,.16,0v-6.29h4.85v-6.3h4.88Z"/><path class="cls-8" d="M937.51,239.13v6.3h-4.88v6.3h-4.85V258a.75.75,0,0,1-.16,0c-2.13,0-4.26,0-6.38,0a1.88,1.88,0,0,1-.77-3.58,3,3,0,0,1,1-.2c.8,0,1.61,0,2.47,0V248h4.87v-6.31h4.88v-6.29l.43,0h5.9a1.9,1.9,0,1,1,0,3.79Z"/><path class="cls-11" d="M90.09,324.16h13a3.8,3.8,0,0,1,4,4q0,13,0,26a3.81,3.81,0,0,1-4,4H77a3.81,3.81,0,0,1-4-4V328.15a3.79,3.79,0,0,1,4-4C81.36,324.15,85.72,324.16,90.09,324.16Zm6.74,9.47h2.53a1.9,1.9,0,1,0,0-3.79h-5.9l-.44,0v6.3H88.16v6.31H83.29v6.29c-.86,0-1.67,0-2.48,0a2.82,2.82,0,0,0-1,.2,1.85,1.85,0,0,0-1,2,1.89,1.89,0,0,0,1.82,1.53h6.39l.16,0v-6.3H92v-6.29h4.88Z"/><path class="cls-8" d="M96.83,333.63v6.3H92v6.29H87.1v6.3l-.16,0H80.55A1.89,1.89,0,0,1,78.73,351a1.85,1.85,0,0,1,1-2,2.82,2.82,0,0,1,1-.2c.81,0,1.62,0,2.48,0v-6.29h4.87v-6.31H93v-6.3l.44,0h5.9a1.9,1.9,0,1,1,0,3.79Z"/><path class="cls-11" d="M712.08,267.81v13a3.83,3.83,0,0,1-4.09,4.1H681.91a3.83,3.83,0,0,1-4.08-4.06V254.74a3.82,3.82,0,0,1,4-4.06H708a3.82,3.82,0,0,1,4,4Zm-26.64,3.87v.46c0,1.66,0,3.33,0,5a1.92,1.92,0,0,0,2.08,2.09H689a1.91,1.91,0,0,0,2.11-2.09c0-1.62,0-3.24,0-4.86v-.61l.31-.08a1.9,1.9,0,0,0,1.61-1.9c0-.95,0-1.91,0-2.86a3.74,3.74,0,0,0-3.17-3.7,17.5,17.5,0,0,0-2.71-.05,3.63,3.63,0,0,0-3.53,3.08,27.16,27.16,0,0,0-.07,3.83,1.66,1.66,0,0,0,1,1.4A7.71,7.71,0,0,0,685.44,271.68Zm16.16-5.77h2.85a1.05,1.05,0,0,0,1-.49,1.07,1.07,0,0,0-.12-1.17q-1.41-2.26-2.83-4.53a1,1,0,0,0-1.8,0l-2.88,4.6a1,1,0,0,0,.9,1.6Zm0,3.79h-2.89a1,1,0,0,0-.89,1.61c1,1.52,1.9,3.05,2.86,4.57a1,1,0,0,0,1.8,0c1-1.52,1.9-3,2.86-4.56a1,1,0,0,0,.12-1.09,1,1,0,0,0-1-.52Zm-15.7-10.92a2.37,2.37,0,1,0,2.37-2.39A2.35,2.35,0,0,0,685.93,258.78Z"/><path class="cls-8" d="M685.44,271.68a7.71,7.71,0,0,1-.89-.3,1.66,1.66,0,0,1-1-1.4,27.16,27.16,0,0,1,.07-3.83,3.63,3.63,0,0,1,3.53-3.08,17.5,17.5,0,0,1,2.71.05,3.74,3.74,0,0,1,3.17,3.7c0,.95,0,1.91,0,2.86a1.9,1.9,0,0,1-1.61,1.9l-.31.08v.61c0,1.62,0,3.24,0,4.86a1.91,1.91,0,0,1-2.11,2.09h-1.51a1.92,1.92,0,0,1-2.08-2.09c0-1.66,0-3.33,0-5Z"/><path class="cls-8" d="M701.6,265.91h-2.85a1,1,0,0,1-.9-1.6l2.88-4.6a1,1,0,0,1,1.8,0q1.43,2.26,2.83,4.53a1.07,1.07,0,0,1,.12,1.17,1.05,1.05,0,0,1-1,.49Z"/><path class="cls-8" d="M701.63,269.7h2.85a1,1,0,0,1,1,.52,1,1,0,0,1-.12,1.09c-1,1.52-1.9,3-2.86,4.56a1,1,0,0,1-1.8,0c-1-1.52-1.9-3.05-2.86-4.57a1,1,0,0,1,.89-1.61Z"/><path class="cls-8" d="M685.93,258.78a2.37,2.37,0,1,1,2.39,2.36A2.37,2.37,0,0,1,685.93,258.78Z"/><path class="cls-8" d="M717.46,395.68h33.7v12.51H698.85v-9.3a86.21,86.21,0,0,1,20.86-22.15q16.68-12.51,15.41-18.61-.33-9.3-9.63-9.31-9.63-.31-11.88,11.88l-14.44-2.89q4.17-21.49,28.57-21.5,22.14,1,23.74,20.21Q753.08,370,735.76,380A117.18,117.18,0,0,0,717.46,395.68Z"/><path class="cls-8" d="M819.71,372.89q.64,36.92-27.28,36.27-27-.66-27.27-36,1-35.94,27.27-37.23Q819.4,336.31,819.71,372.89Zm-16.69.32q.32-26-10.27-25.35-10.9-.32-10.91,25.35,0,24.72,10.91,24.71Q803.36,397.92,803,373.21Z"/><path class="cls-8" d="M852.32,395.68H886v12.51H833.7v-9.3a86.38,86.38,0,0,1,20.86-22.15q16.7-12.51,15.41-18.61-.33-9.3-9.63-9.31-9.63-.31-11.87,11.88L834,357.81q4.15-21.49,28.56-21.5,22.14,1,23.75,20.21Q887.93,370,870.61,380A116.6,116.6,0,0,0,852.32,395.68Z"/></svg>