<svg width="1.5em" height="1em" viewBox="0 0 24 16" fill="none" xmlns="http://www.w3.org/2000/svg"><g id="Group 13"><path id="Ellipse 8" d="M1.56061 12.365C3.02325 7.7719 7.1638 4.5 12 4.5C16.8362 4.5 20.9767 7.7719 22.4394 12.365C22.6552 13.0426 22.4773 13.6619 22.0359 14.1476C21.5782 14.6512 20.8356 15 20 15H4C3.16438 15 2.42182 14.6512 1.96411 14.1476C1.5227 13.6619 1.34484 13.0426 1.56061 12.365Z" fill="#9ABAEB" stroke="white" stroke-width="2"></path><path id="Union" fill-rule="evenodd" clip-rule="evenodd" d="M17.1541 3.37335C16.6187 3.23763 16.2948 2.69362 16.4305 2.15827L16.7499 0.898132C16.8857 0.362783 17.4297 0.0388208 17.965 0.174542C18.5004 0.310262 18.8243 0.854272 18.6886 1.38962L18.3691 2.64976C18.2334 3.1851 17.6894 3.50907 17.1541 3.37335ZM18.9378 4.33989C18.4703 4.04575 18.3299 3.42836 18.624 2.96092L19.5926 1.42163C19.8867 0.954188 20.5041 0.8137 20.9716 1.10784C21.439 1.40198 21.5795 2.01936 21.2854 2.4868L20.3167 4.0261C20.0226 4.49354 19.4052 4.63403 18.9378 4.33989ZM20.806 4.20142C20.3457 4.50673 20.2202 5.12731 20.5255 5.58754C20.8308 6.04776 21.4514 6.17334 21.9116 5.86803L22.5685 5.43226C23.0287 5.12695 23.1543 4.50637 22.8489 4.04614C22.5436 3.58592 21.9231 3.46034 21.4628 3.76565L20.806 4.20142Z" fill="white"></path></g></svg>
