<svg id="圖層_1" data-name="圖層 1" xmlns="http://www.w3.org/2000/svg" viewBox="0 0 1080 491.14"><defs><style>.cls-1{fill:#3a2d5a;}.cls-1,.cls-2,.cls-3,.cls-4,.cls-5,.cls-6,.cls-9{stroke:#3a2d5a;stroke-miterlimit:10;}.cls-1,.cls-9{stroke-width:3px;}.cls-2{fill:#746a8f;}.cls-2,.cls-3,.cls-4,.cls-5,.cls-6{stroke-width:5px;}.cls-3{fill:#84a0c2;}.cls-4{fill:#544370;}.cls-5{fill:#5f5e91;}.cls-6{fill:#575886;}.cls-7{fill:#77b8d2;}.cls-8{fill:#fff;}.cls-9{fill:#d6e5f6;}.cls-10{fill:#ce91be;}.cls-11{fill:#68c2b1;}</style></defs><polygon class="cls-1" points="939.23 452.47 32.38 452.47 32.38 36.4 786.89 36.4 786.89 201.61 939.23 201.61 939.23 452.47"/><rect class="cls-2" x="183.82" y="290.89" width="190.57" height="159.8"/><rect class="cls-3" x="374.38" y="290.89" width="190.57" height="159.8"/><rect class="cls-2" x="709.56" y="37.37" width="77.32" height="165.11"/><rect class="cls-2" x="491.06" y="37.37" width="218.51" height="165.11"/><rect class="cls-2" x="262.57" y="37.37" width="228.49" height="165.11"/><rect class="cls-2" x="33.63" y="37.37" width="231.54" height="165.11"/><rect class="cls-3" x="628.77" y="290.89" width="308.15" height="158.76"/><rect class="cls-4" x="628.77" y="244.44" width="108.14" height="46.45"/><rect class="cls-5" x="758.29" y="244.44" width="122.25" height="46.45"/><rect class="cls-5" x="293.46" y="241.06" width="271.44" height="49.44"/><rect class="cls-6" x="33.63" y="302.03" width="117.3" height="149.2"/><rect class="cls-6" x="883.09" y="202.48" width="168.05" height="88.41"/><path class="cls-7" d="M829.94,251.32a3.65,3.65,0,0,1,3.89,3.88v24.94A3.65,3.65,0,0,1,830,284H805a3.65,3.65,0,0,1-3.85-3.84q0-12.51,0-25a3.64,3.64,0,0,1,3.81-3.83"/><path class="cls-8" d="M821,269.05v10.29a1.58,1.58,0,0,1-1,1.59,1.54,1.54,0,0,1-2.12-1.08,2.84,2.84,0,0,1,0-.58q0-3,0-6v-.37h-.7v.36c0,2,0,4.06,0,6.1a1.56,1.56,0,0,1-1.21,1.64,1.54,1.54,0,0,1-1.88-1.32,4.58,4.58,0,0,1,0-.53q0-4.71,0-9.41V269h0c0,.09-.09.18-.12.27-.19.48-.35,1-.55,1.43a1.15,1.15,0,0,1-2.15-.78c.36-1.2.76-2.38,1.15-3.57l1.17-3.57a1.29,1.29,0,0,1,1.4-1h5.27a1.33,1.33,0,0,1,1.4,1c.75,2.28,1.51,4.56,2.24,6.85a1.91,1.91,0,0,1,.07.89,1.08,1.08,0,0,1-1,.82,1.09,1.09,0,0,1-1.15-.65c-.21-.46-.37-.93-.54-1.4,0-.09-.08-.18-.11-.27Z"/><path class="cls-8" d="M817.53,261a3.33,3.33,0,1,1,3.37-3.32A3.34,3.34,0,0,1,817.53,261Z"/><polygon class="cls-9" points="547.42 334.18 562.02 325.75 576.61 317.32 576.61 334.18 576.61 351.03 562.02 342.6 547.42 334.18"/><polygon class="cls-9" points="645.82 332.55 631.22 340.98 616.63 349.4 616.63 332.55 616.63 315.7 631.22 324.13 645.82 332.55"/><polygon class="cls-9" points="645.82 409.89 631.22 418.32 616.63 426.75 616.63 409.89 616.63 393.04 631.22 401.47 645.82 409.89"/><polygon class="cls-9" points="547.42 405.96 562.02 397.54 576.61 389.11 576.61 405.96 576.61 422.82 562.02 414.39 547.42 405.96"/><path class="cls-10" d="M441.86,249.14a3.72,3.72,0,0,1,4,4v25.4a3.71,3.71,0,0,1-3.93,3.94H416.46a3.71,3.71,0,0,1-3.92-3.91V253a3.7,3.7,0,0,1,3.89-3.9"/><path class="cls-8" d="M436,268.5a3.24,3.24,0,0,1-.58.77A.93.93,0,0,1,434,269a5.13,5.13,0,0,0-.41-.66c.19,1.16.38,2.32.56,3.48a.81.81,0,0,1-.87,1c-.38,0-.76,0-1.14,0s-.33.08-.33.33c0,1.58,0,3.15,0,4.73a4.36,4.36,0,0,1,0,.51,1.2,1.2,0,0,1-2.39.1,2.85,2.85,0,0,1,0-.51c0-1.59,0-3.19,0-4.79v-.34h-.42v5.12a2.45,2.45,0,0,1-.06.6,1.2,1.2,0,0,1-2.36-.07,3.64,3.64,0,0,1,0-.57v-5.1h-1.2c-.83,0-1.12-.36-1-1.19.19-1.08.39-2.17.54-3.27l-.19.37a1.18,1.18,0,1,1-2.16-1q1.5-3.51,3-7a1.42,1.42,0,0,1,1.44-.93c1.6,0,3.21,0,4.82,0a1.12,1.12,0,0,1,1.17.79q1.49,3.65,3,7.3l.07.12Z"/><path class="cls-8" d="M425.72,255.52a3.42,3.42,0,1,1,3.41,3.43A3.42,3.42,0,0,1,425.72,255.52Z"/><path class="cls-11" d="M927.92,229.75H940.8a3.78,3.78,0,0,1,4,4v25.84a3.78,3.78,0,0,1-4,4H915a3.78,3.78,0,0,1-4-4V233.72a3.78,3.78,0,0,1,4-4Zm6.71,9.42h2.52a1.89,1.89,0,1,0,0-3.76c-1.95,0-3.91,0-5.86,0l-.43,0v6.26H926V248h-4.85v6.26c-.84,0-1.65,0-2.45,0a3.25,3.25,0,0,0-1,.2,1.85,1.85,0,0,0-1,2,1.87,1.87,0,0,0,1.81,1.52h6.35l.16,0v-6.26h4.82v-6.26h4.85Z"/><path class="cls-8" d="M934.63,239.17v6.25h-4.85v6.26H925v6.26l-.16,0h-6.35a1.87,1.87,0,0,1-1.81-1.52,1.85,1.85,0,0,1,1-2,3.25,3.25,0,0,1,1-.2c.8,0,1.61,0,2.45,0V248H926v-6.27h4.85v-6.26l.43,0c2,0,3.91,0,5.86,0a1.89,1.89,0,1,1,0,3.76Z"/><path class="cls-11" d="M92.31,323.68h12.87a3.78,3.78,0,0,1,4,4v25.84a3.77,3.77,0,0,1-4,4H79.34a3.78,3.78,0,0,1-4-4V327.64a3.77,3.77,0,0,1,4-4Zm6.7,9.41c.88,0,1.7,0,2.52,0a1.89,1.89,0,1,0,0-3.77H95.67l-.43,0v6.26H90.39v6.27H85.55v6.25c-.85,0-1.66,0-2.46,0a2.73,2.73,0,0,0-1,.2,1.84,1.84,0,0,0-1,2,1.89,1.89,0,0,0,1.81,1.52c2.12,0,4.23,0,6.35,0l.16,0v-6.26h4.82v-6.26H99Z"/><path class="cls-8" d="M99,333.09v6.26H94.16v6.26H89.34v6.26l-.16,0c-2.12,0-4.23,0-6.35,0A1.89,1.89,0,0,1,81,350.38a1.84,1.84,0,0,1,1-2,2.73,2.73,0,0,1,1-.2c.8,0,1.61,0,2.46,0v-6.25h4.84v-6.27h4.85v-6.26l.43,0h5.87a1.89,1.89,0,1,1,0,3.77C100.71,333.1,99.89,333.09,99,333.09Z"/><path class="cls-11" d="M704.4,268.09V281a3.81,3.81,0,0,1-4.06,4.08H674.41a3.8,3.8,0,0,1-4-4v-26a3.8,3.8,0,0,1,4-4h26a3.79,3.79,0,0,1,4,4Zm-26.48,3.85v.46c0,1.65,0,3.31,0,5a1.91,1.91,0,0,0,2.06,2.08h1.51a1.91,1.91,0,0,0,2.1-2.08v-5.44l.3-.08a1.87,1.87,0,0,0,1.6-1.89c0-.95,0-1.89,0-2.84a3.73,3.73,0,0,0-3.16-3.68,16.2,16.2,0,0,0-2.7,0,3.61,3.61,0,0,0-3.5,3.06,25.34,25.34,0,0,0-.06,3.8,1.6,1.6,0,0,0,1,1.39A6.93,6.93,0,0,0,677.92,271.94ZM694,266.21h2.83a1,1,0,0,0,.9-1.65l-2.81-4.5a1,1,0,0,0-1.79,0l-2.87,4.58a1,1,0,0,0-.1,1.08,1,1,0,0,0,1,.51Zm0,3.76h-2.88a1,1,0,0,0-1,.53,1,1,0,0,0,.11,1.08c1,1.51,1.89,3,2.85,4.54a1,1,0,0,0,1.79,0l2.84-4.54a1,1,0,0,0-.88-1.6Zm-15.6-10.85a2.36,2.36,0,0,0,4.71,0,2.36,2.36,0,1,0-4.71,0Z"/><path class="cls-8" d="M677.92,271.94a6.93,6.93,0,0,1-.88-.3,1.6,1.6,0,0,1-1-1.39,25.34,25.34,0,0,1,.06-3.8,3.61,3.61,0,0,1,3.5-3.06,16.2,16.2,0,0,1,2.7,0,3.73,3.73,0,0,1,3.16,3.68c0,.95,0,1.89,0,2.84a1.87,1.87,0,0,1-1.6,1.89l-.3.08v5.44a1.91,1.91,0,0,1-2.1,2.08H680a1.91,1.91,0,0,1-2.06-2.08c0-1.65,0-3.31,0-5Z"/><path class="cls-8" d="M694,266.21h-2.84a1,1,0,0,1-1-.51,1,1,0,0,1,.1-1.08l2.87-4.58a1,1,0,0,1,1.79,0l2.81,4.5a1,1,0,0,1-.9,1.65Z"/><path class="cls-8" d="M694,270h2.84a1,1,0,0,1,.88,1.6l-2.84,4.54a1,1,0,0,1-1.79,0c-1-1.51-1.89-3-2.85-4.54a1,1,0,0,1-.11-1.08,1,1,0,0,1,1-.53Z"/><path class="cls-8" d="M678.41,259.12a2.36,2.36,0,1,1,2.37,2.34A2.35,2.35,0,0,1,678.41,259.12Z"/><path class="cls-8" d="M391.17,391,404,388.48q1.27,8.2,9.48,8.2,7.95-.26,8.2-7.95.25-7.94-12.3-7.94h-5.12v-9.48h4.87q11.26,0,11.27-7.43-.25-7.17-7.17-7.18-7.18.53-9,8.2l-12.05-2.3q3.58-15.12,22-15.38,17.68.52,19,14.86.26,10.51-12,13.33v.26q12.3,2,13.33,13.83-1,15.63-21.79,16.15Q395.26,406.67,391.17,391Z"/><path class="cls-8" d="M489,376.69q.5,29.47-21.79,29-21.53-.52-21.78-28.7.76-28.69,21.78-29.73Q488.69,347.48,489,376.69Zm-13.33.26q.25-20.76-8.2-20.25-8.71-.26-8.71,20.25,0,19.73,8.71,19.73Q475.89,396.68,475.63,377Z"/><path class="cls-8" d="M515,394.89H541.9v10H500.13v-7.43a68.69,68.69,0,0,1,16.65-17.68q13.34-10,12.31-14.87-.27-7.42-7.69-7.43-7.7-.25-9.48,9.48l-11.54-2.3q3.33-17.17,22.81-17.17,17.68.76,19,16.14,1.29,10.77-12.55,18.71A93.65,93.65,0,0,0,515,394.89Z"/><path class="cls-8" d="M679.9,391.24l18-3.6q1.79,11.52,13.3,11.51,11.13-.36,11.5-11.15.36-11.13-17.25-11.14h-7.19v-13.3h6.83q15.81,0,15.81-10.43-.36-10.06-10.06-10.06-10.07.72-12.58,11.5l-16.9-3.24q5-21.21,30.92-21.56,24.79.72,26.6,20.84.36,14.75-16.9,18.7v.36q17.26,2.88,18.7,19.41Q739.22,411,710.1,411.73,685.65,413.16,679.9,391.24Z"/><path class="cls-8" d="M817.08,371.11q.72,41.34-30.55,40.62Q756.34,411,756,371.46q1.08-40.24,30.56-41.69Q816.72,330.13,817.08,371.11Zm-18.69.35q.36-29.11-11.5-28.39-12.23-.36-12.23,28.39,0,27.69,12.23,27.69Q798.75,399.15,798.39,371.46Z"/><path class="cls-8" d="M833.12,391.24l18-3.6q1.8,11.52,13.3,11.51,11.15-.36,11.51-11.15.35-11.13-17.26-11.14h-7.19v-13.3h6.83q15.83,0,15.82-10.43-.36-10.06-10.07-10.06-10.06.72-12.58,11.5l-16.89-3.24q5-21.21,30.91-21.56,24.81.72,26.6,20.84.36,14.75-16.89,18.7v.36q17.25,2.88,18.69,19.41-1.44,21.93-30.56,22.65Q838.86,413.16,833.12,391.24Z"/></svg>