<svg width="80" height="80" viewBox="0 0 80 80" fill="none" xmlns="http://www.w3.org/2000/svg">
<g clip-path="url(#clip0_62_3248)">
<path d="M35.4591 36.7431L13.4862 18.2476C12.5887 17.5007 11.5369 16.9595 10.4053 16.6625C9.27381 16.3654 8.09038 16.3198 6.93912 16.5288C5.78786 16.7379 4.69701 17.1964 3.74406 17.872C2.7911 18.5476 1.99943 19.4235 1.42526 20.4376C0.851098 21.4517 0.508531 22.5791 0.421896 23.7397C0.335261 24.9004 0.506684 26.0657 0.923987 27.153C1.34129 28.2403 1.99424 29.2229 2.83644 30.031C3.67865 30.839 4.68946 31.4528 5.79706 31.8286H5.87677L6.08401 31.892L33.8012 40.2889C34.0023 40.3612 34.2144 40.3987 34.4283 40.3999C34.8592 40.3977 35.2777 40.2558 35.6203 39.9958C35.963 39.7358 36.211 39.3719 36.327 38.9591C36.4429 38.5463 36.4204 38.1072 36.2628 37.7083C36.1053 37.3093 35.8213 36.9724 35.4538 36.7484L35.4591 36.7431Z" fill="url(#paint0_linear_62_3248)"/>
<path d="M39.9999 6.16976C40.0063 5.13308 39.7276 4.11409 39.1935 3.22117C38.6595 2.32825 37.89 1.5948 36.967 1.09882C36.0439 0.602854 35.0018 0.362914 33.9515 0.404525C32.9012 0.446136 31.882 0.767744 31.0023 1.33514L4.03614 17.4821C3.11924 18.0716 2.33454 18.84 1.73048 19.7402C1.12642 20.6403 0.715812 21.653 0.523997 22.7157C0.332182 23.7784 0.36323 24.8686 0.615226 25.9191C0.867222 26.9695 1.33482 27.9578 1.98916 28.8231C2.64349 29.6884 3.47069 30.4122 4.41969 30.9499C5.36869 31.4877 6.41935 31.8279 7.50684 31.9495C8.59433 32.0712 9.69557 31.9718 10.7426 31.6574C11.7896 31.3431 12.7602 30.8204 13.5944 30.1217L37.7679 10.6937L37.9601 10.5357C38.5991 9.99593 39.1122 9.32634 39.4642 8.57277C39.8163 7.81921 39.999 6.99948 39.9999 6.16976Z" fill="url(#paint1_linear_62_3248)"/>
<path d="M78.8351 40.9482L38.2681 2.08992C37.7188 1.54163 37.0638 1.10939 36.3424 0.819145C35.621 0.528897 34.848 0.386628 34.0699 0.400876C33.2919 0.415124 32.5247 0.585597 31.8145 0.90206C31.1044 1.21852 30.4658 1.67445 29.9372 2.24248C29.4085 2.8105 29.0008 3.47891 28.7383 4.20757C28.4759 4.93624 28.3642 5.71014 28.4099 6.48281C28.4556 7.25549 28.6579 8.011 29.0044 8.70401C29.351 9.39701 29.8348 10.0132 30.4268 10.5156L30.5009 10.5788L73.5988 46.6935C74.1674 47.168 74.8605 47.471 75.5964 47.567C76.3323 47.663 77.0805 47.5479 77.7529 47.2354C78.4253 46.9228 78.994 46.4258 79.3921 45.8027C79.7901 45.1796 80.001 44.4564 79.9999 43.7182C79.9998 43.2028 79.8968 42.6925 79.6969 42.217C79.4969 41.7415 79.204 41.3102 78.8351 40.9482Z" fill="url(#paint2_linear_62_3248)"/>
<path d="M79.9998 43.9036C80.0051 43.1865 79.8106 42.4821 79.4379 41.8686C79.0653 41.2551 78.5292 40.7567 77.8892 40.4288C77.2492 40.101 76.5305 39.9564 75.813 40.0114C75.0956 40.0664 74.4074 40.3186 73.8253 40.7401L24.773 64.6245C23.7949 65.1142 22.9291 65.8003 22.2299 66.6396C21.5307 67.4788 21.0133 68.4532 20.7102 69.5013C20.4071 70.5494 20.3249 71.6487 20.4687 72.7301C20.6124 73.8114 20.9791 74.8514 21.5457 75.7847C22.1123 76.7181 22.8664 77.5245 23.7608 78.1534C24.6552 78.7822 25.6705 79.2199 26.7428 79.4389C27.8151 79.658 28.9213 79.6536 29.9918 79.426C31.0623 79.1985 32.074 78.7527 32.9634 78.1168L78.3226 47.0935C78.8403 46.7367 79.2635 46.2601 79.5556 45.7045C79.8477 45.1488 80.0002 44.5309 79.9998 43.9036Z" fill="url(#paint3_linear_62_3248)"/>
<path d="M24 24H56V56H24V24Z" fill="black"/>
<path d="M27.5044 49.9468H39.4388V51.9358H27.5044V49.9468Z" fill="white"/>
<path d="M27.0059 32.2945L27.8917 31.4564C27.976 31.5894 28.0906 31.7006 28.2261 31.7808C28.3616 31.861 28.5142 31.908 28.6714 31.9179C29.0108 31.9179 29.2336 31.6792 29.2336 31.2177V28.0776H30.6021V31.2283C30.6225 31.482 30.5897 31.7372 30.5057 31.9774C30.4216 32.2177 30.2882 32.4377 30.1141 32.6233C29.9343 32.7989 29.7209 32.9364 29.4866 33.0276C29.2524 33.1187 29.0022 33.1616 28.7509 33.1537C28.4115 33.1674 28.074 33.096 27.7692 32.9459C27.4644 32.7958 27.202 32.5719 27.0059 32.2945Z" fill="white"/>
<path d="M31.2173 28.0776H35.2114V29.2393H32.5593V29.9977H34.9409V31.0586H32.5805V31.8489H35.2326V33.0158H31.2014L31.2173 28.0776Z" fill="white"/>
<path d="M37.158 29.2817H35.6729V28.0776H40.0276V29.2817H38.5371V33.0423H37.158V29.2817Z" fill="white"/>
<path d="M27.5574 35.0047H29.9018C30.1452 34.9847 30.3901 35.0133 30.6223 35.0889C30.8546 35.1645 31.0694 35.2855 31.2544 35.445C31.3598 35.5507 31.4428 35.6765 31.4984 35.8151C31.554 35.9536 31.5811 36.102 31.5779 36.2512C31.5819 36.4932 31.5098 36.7304 31.3718 36.9293C31.2339 37.1282 31.0369 37.2788 30.8088 37.3598C31.091 37.4115 31.3455 37.5623 31.5263 37.785C31.7072 38.0077 31.8026 38.2876 31.7954 38.5744C31.7954 39.4708 31.1006 40.0013 29.9124 40.0013H27.5574V35.0047ZM30.2095 36.5376C30.2095 36.2618 29.9867 36.1133 29.5836 36.1133H28.8993V36.9832H29.5624C29.9761 36.9832 30.2201 36.84 30.2201 36.5535L30.2095 36.5376ZM29.7321 37.9485H28.8993V38.8662H29.7586C30.1829 38.8662 30.4163 38.7017 30.4163 38.41C30.4057 38.1289 30.2042 37.9485 29.7427 37.9485H29.7321Z" fill="white"/>
<path d="M32.2357 35.0048H34.4369C34.7283 34.9811 35.0215 35.0158 35.2993 35.1069C35.5771 35.1979 35.8339 35.3436 36.0547 35.5352C36.2036 35.6874 36.3196 35.8686 36.3953 36.0675C36.4711 36.2665 36.505 36.4789 36.495 36.6915C36.5045 37.0217 36.4111 37.3466 36.2277 37.6213C36.0442 37.896 35.7799 38.1068 35.4713 38.2244L36.6594 40.0013H35.0681L34.0656 38.495H33.6042V40.0013H32.2251L32.2357 35.0048ZM34.3574 37.3917C34.8188 37.3917 35.1 37.1636 35.1 36.7976C35.1 36.3998 34.8082 36.1982 34.3521 36.1982H33.6148V37.4023L34.3574 37.3917Z" fill="white"/>
<path d="M38.41 34.9678H39.736L41.8577 39.9749H40.3778L40.0224 39.0785H38.097L37.7416 40.0014H36.3042L38.41 34.9678ZM39.6193 38.0071L39.0624 36.6015L38.5001 38.0071H39.6193Z" fill="white"/>
<path d="M42.075 34.989H43.454V39.959H42.075V34.989Z" fill="white"/>
<path d="M43.9634 34.989H45.2576L47.0451 37.6411V34.989H48.4083V39.959H47.2042L45.3319 37.2327V39.959H43.9634V34.989Z" fill="white"/>
<path d="M48.6362 39.2217L49.4 38.3041C49.8474 38.6781 50.4083 38.8894 50.9913 38.9035C51.3679 38.9035 51.5641 38.7709 51.5641 38.5587C51.5641 38.3412 51.405 38.2352 50.7208 38.076C49.6599 37.832 48.8484 37.5456 48.8484 36.5219C48.8484 35.599 49.5804 34.9307 50.7738 34.9307C51.5115 34.903 52.2351 35.138 52.8159 35.5937L52.1529 36.5378C51.7517 36.2346 51.2659 36.0641 50.7632 36.0498C50.429 36.0498 50.2646 36.1824 50.2646 36.3681C50.2646 36.5962 50.4343 36.6969 51.1292 36.8508C52.2696 37.1001 52.975 37.4714 52.975 38.3996C52.975 39.4127 52.1741 39.9908 50.9701 39.9908C50.1245 40.0268 49.2947 39.7534 48.6362 39.2217Z" fill="white"/>
</g>
<defs>
<linearGradient id="paint0_linear_62_3248" x1="9.46364" y1="24.8267" x2="36.0453" y2="37.8264" gradientUnits="userSpaceOnUse">
<stop offset="0.21" stop-color="#FE2857"/>
<stop offset="1" stop-color="#293896"/>
</linearGradient>
<linearGradient id="paint1_linear_62_3248" x1="1.30214" y1="29.3054" x2="35.9703" y2="3.23556" gradientUnits="userSpaceOnUse">
<stop stop-color="#FE2857"/>
<stop offset="0.01" stop-color="#FE2857"/>
<stop offset="0.86" stop-color="#FF318C"/>
</linearGradient>
<linearGradient id="paint2_linear_62_3248" x1="31.6499" y1="3.86458" x2="77.0136" y2="45.2784" gradientUnits="userSpaceOnUse">
<stop offset="0.02" stop-color="#FF318C"/>
<stop offset="0.21" stop-color="#FE2857"/>
<stop offset="0.86" stop-color="#FDB60D"/>
</linearGradient>
<linearGradient id="paint3_linear_62_3248" x1="74.6877" y1="39.9545" x2="21.6914" y2="76.5603" gradientUnits="userSpaceOnUse">
<stop offset="0.01" stop-color="#FDB60D"/>
<stop offset="0.86" stop-color="#FCF84A"/>
</linearGradient>
<clipPath id="clip0_62_3248">
<rect width="80" height="80" fill="white"/>
</clipPath>
</defs>
</svg>
